<?xml version="1.0"?><svg style="display:none" xmlns="http://www.w3.org/2000/svg" xmlns:xlink="http://www.w3.org/1999/xlink"><symbol viewBox="0 0 24 24" id="about__coffee"><path d="M22 2.427c-1.302 0-2.441-1.043-2.441-2.427H4.41A2.409 2.409 0 0 1 2 2.427V4h20V2.427M3 6l3.031 18h11.938L21 6H3m4.049 12l-1.01-6h11.923l-1.01 6H7.049z" fill="#eaeaea"/></symbol><symbol viewBox="0 0 24 24" id="about__database"><path d="M22 18.055v2.458C22 22.438 17.345 24 12 24c-5.344 0-10-1.562-10-3.487v-2.458c2.418 1.738 7.005 2.256 10 2.256 3.006 0 7.588-.523 10-2.256m-10-3.409c-3.006 0-7.588-.523-10-2.256v2.434c0 1.926 4.656 3.487 10 3.487 5.345 0 10-1.562 10-3.487V12.39c-2.418 1.738-7.005 2.256-10 2.256M12 0C6.656 0 2 1.562 2 3.488s4.656 3.487 10 3.487c5.345 0 10-1.562 10-3.487C22 1.562 17.345 0 12 0m0 8.975c-3.006 0-7.588-.523-10-2.256v2.44c0 1.926 4.656 3.487 10 3.487 5.345 0 10-1.562 10-3.487v-2.44c-2.418 1.738-7.005 2.256-10 2.256z" fill="#eaeaea"/></symbol><symbol viewBox="0 0 24 24" id="about__facebook"><path d="M9 8H6v4h3v12h5V12h3.642L18 8h-4V6.333C14 5.378 14.192 5 15.115 5H18V0h-3.808C10.596 0 9 1.583 9 4.615V8z" fill="#eaeaea"/></symbol><symbol viewBox="0 0 24 24" id="about__files"><path d="M15.602 4.075C17.803 5.249 20.506 7.329 22 9.327c-1.286-.9-3.011-1.027-5.058-.549.222-1.469-.185-3.535-1.34-4.703M14.777 11s1.522-7-3.335-7H6v20h16V13.371c0-3.42-4.214-3.116-7.223-2.371m-.318-8L13 2H4v20h1V3h9.459m-2.443-2l-1.5-1H2v20h1V1h9.016z" fill="#eaeaea"/></symbol><symbol viewBox="0 0 256 256" id="about__guests"><path d="M20.823 18.096c-3.44-.794-6.64-1.49-5.09-4.418C20.453 4.766 16.983 0 12 0 6.918 0 3.536 4.949 8.268 13.678c1.597 2.945-1.725 3.641-5.09 4.418C.105 18.806-.01 20.332 0 23l.004 1h23.99l.005-.969c.012-2.688-.092-4.222-3.176-4.935z" fill="#eaeaea"/><path d="M46.216 19.307c-2.967-.681-6.578-2.437-5.514-4.723.684 1.126 2.801 1.777 4.45.804-4.747-1.204 2.334-9.471-3.87-14.105A6.524 6.524 0 0 0 37.368 0c-1.378 0-2.75.425-3.862 1.283-6.206 4.634.876 12.901-3.872 14.105 1.65.974 3.77.293 4.451-.804 1.064 2.286-2.55 4.043-5.514 4.723-2.978.682-3.178 2.466-3.178 4.004L25.4 24h23.99l.005-.691c0-1.537-.2-3.32-3.178-4.002z" fill="#eaeaea"/><path d="M71.612 18.096c-3.439-.794-6.64-1.49-5.09-4.418C71.242 4.766 67.773 0 62.79 0c-5.082 0-8.464 4.949-3.732 13.678 1.597 2.945-1.725 3.641-5.09 4.418-3.073.71-3.188 2.236-3.178 4.904l.004 1h23.99l.004-.969c.012-2.688-.092-4.222-3.176-4.935z" fill="#eaeaea"/><path d="M97.471 19.307c-2.967-.681-6.578-2.437-5.514-4.723.684 1.126 2.801 1.777 4.45.804-4.747-1.204 2.334-9.471-3.87-14.105A6.524 6.524 0 0 0 88.623 0c-1.378 0-2.75.425-3.862 1.283-6.206 4.634.876 12.901-3.872 14.105 1.65.974 3.77.293 4.451-.804 1.064 2.286-2.55 4.043-5.514 4.723-2.978.682-3.178 2.466-3.178 4.004l.005.689h23.99l.005-.691c0-1.537-.2-3.32-3.178-4.002z" fill="#eaeaea"/><path d="M123.099 18.096c-3.439-.794-6.64-1.49-5.09-4.418C122.729 4.766 119.26 0 114.277 0c-5.082 0-8.464 4.949-3.732 13.678 1.597 2.945-1.725 3.641-5.09 4.418-3.073.71-3.188 2.236-3.178 4.904l.004 1h23.99l.004-.969c.012-2.688-.092-4.222-3.176-4.935z" fill="#eaeaea"/><path d="M148.822 19.307c-2.967-.681-6.578-2.437-5.514-4.723.684 1.126 2.801 1.777 4.45.804-4.747-1.204 2.334-9.471-3.871-14.105A6.524 6.524 0 0 0 139.975 0c-1.378 0-2.751.425-3.862 1.283-6.206 4.634.876 12.901-3.872 14.105 1.649.974 3.77.293 4.451-.804 1.064 2.286-2.551 4.043-5.514 4.723-2.978.682-3.178 2.466-3.178 4.004l.005.689h23.99l.005-.691c0-1.537-.2-3.32-3.178-4.002z" fill="#eaeaea"/><path d="M174.587 18.096c-3.439-.794-6.64-1.49-5.09-4.418C174.217 4.766 170.748 0 165.765 0c-5.082 0-8.464 4.949-3.732 13.678 1.597 2.945-1.725 3.641-5.09 4.418-3.073.71-3.188 2.236-3.178 4.904l.004 1h23.99l.004-.969c.012-2.688-.092-4.222-3.176-4.935z" fill="#eaeaea"/><path d="M200.819 19.307c-2.967-.681-6.578-2.437-5.514-4.723.684 1.126 2.801 1.777 4.45.804-4.747-1.204 2.334-9.471-3.871-14.105A6.524 6.524 0 0 0 191.972 0c-1.378 0-2.751.425-3.862 1.283-6.206 4.634.876 12.901-3.872 14.105 1.649.974 3.77.293 4.451-.804 1.064 2.286-2.551 4.043-5.514 4.723-2.978.682-3.178 2.466-3.178 4.004l.005.689h23.99l.005-.691c0-1.537-.2-3.32-3.178-4.002z" fill="#eaeaea"/><path d="M226.843 18.096c-3.439-.794-6.64-1.49-5.09-4.418C226.473 4.766 223.004 0 218.021 0c-5.082 0-8.464 4.949-3.732 13.678 1.597 2.945-1.725 3.641-5.09 4.418-3.073.71-3.188 2.236-3.178 4.904l.004 1h23.99l.004-.969c.012-2.688-.092-4.222-3.176-4.935z" fill="#eaeaea"/><path d="M252.822 19.307c-2.967-.681-6.578-2.437-5.514-4.723.684 1.126 2.801 1.777 4.45.804-4.747-1.204 2.334-9.471-3.871-14.105A6.524 6.524 0 0 0 243.975 0c-1.378 0-2.751.425-3.862 1.283-6.206 4.634.876 12.901-3.872 14.105 1.649.974 3.77.293 4.451-.804 1.064 2.286-2.551 4.043-5.514 4.723-2.978.682-3.178 2.466-3.178 4.004l.005.689h23.99l.005-.691c0-1.537-.2-3.32-3.178-4.002z" fill="#eaeaea"/><path d="M20.823 43.534c-3.44-.794-6.64-1.49-5.09-4.418 4.72-8.912 1.25-13.678-3.732-13.678-5.082 0-8.464 4.95-3.732 13.678 1.597 2.945-1.726 3.641-5.09 4.418C.104 44.244-.01 45.77 0 48.438l.004 1h23.99L24 48.47c.012-2.688-.092-4.222-3.176-4.935z" fill="#eaeaea"/><path d="M46.216 44.745c-2.967-.68-6.578-2.437-5.514-4.723.684 1.126 2.801 1.777 4.45.804-4.747-1.204 2.334-9.47-3.87-14.105a6.524 6.524 0 0 0-3.913-1.283c-1.378 0-2.75.425-3.862 1.283-6.206 4.634.876 12.901-3.872 14.105 1.65.974 3.77.293 4.451-.804 1.064 2.286-2.55 4.043-5.514 4.723-2.978.682-3.178 2.466-3.178 4.004l.005.69h23.99l.005-.692c0-1.537-.2-3.32-3.178-4.002z" fill="#eaeaea"/><path d="M71.612 43.534c-3.439-.794-6.64-1.49-5.09-4.418 4.72-8.912 1.251-13.678-3.732-13.678-5.082 0-8.464 4.95-3.732 13.678 1.597 2.945-1.725 3.641-5.09 4.418-3.073.71-3.188 2.236-3.178 4.904l.004 1h23.99l.004-.969c.012-2.688-.092-4.222-3.176-4.935z" fill="#eaeaea"/><path d="M97.471 44.745c-2.967-.68-6.578-2.437-5.514-4.723.684 1.126 2.801 1.777 4.45.804-4.747-1.204 2.334-9.47-3.87-14.105a6.524 6.524 0 0 0-3.913-1.283c-1.378 0-2.75.425-3.862 1.283-6.206 4.634.876 12.901-3.872 14.105 1.65.974 3.77.293 4.451-.804 1.064 2.286-2.55 4.043-5.514 4.723-2.978.682-3.178 2.466-3.178 4.004l.005.69h23.99l.005-.692c0-1.537-.2-3.32-3.178-4.002z" fill="#eaeaea"/><path d="M123.099 43.534c-3.439-.794-6.64-1.49-5.09-4.418 4.72-8.912 1.251-13.678-3.732-13.678-5.082 0-8.464 4.95-3.732 13.678 1.597 2.945-1.725 3.641-5.09 4.418-3.073.71-3.188 2.236-3.178 4.904l.004 1h23.99l.004-.969c.012-2.688-.092-4.222-3.176-4.935z" fill="#eaeaea"/><path d="M148.822 44.745c-2.967-.68-6.578-2.437-5.514-4.723.684 1.126 2.801 1.777 4.45.804-4.747-1.204 2.334-9.47-3.871-14.105a6.524 6.524 0 0 0-3.912-1.283c-1.378 0-2.751.425-3.862 1.283-6.206 4.634.876 12.901-3.872 14.105 1.649.974 3.77.293 4.451-.804 1.064 2.286-2.551 4.043-5.514 4.723-2.978.682-3.178 2.466-3.178 4.004l.005.69h23.99l.005-.692c0-1.537-.2-3.32-3.178-4.002z" fill="#eaeaea"/><path d="M174.587 43.534c-3.439-.794-6.64-1.49-5.09-4.418 4.72-8.912 1.251-13.678-3.732-13.678-5.082 0-8.464 4.95-3.732 13.678 1.597 2.945-1.725 3.641-5.09 4.418-3.073.71-3.188 2.236-3.178 4.904l.004 1h23.99l.004-.969c.012-2.688-.092-4.222-3.176-4.935z" fill="#eaeaea"/><path d="M200.819 44.745c-2.967-.68-6.578-2.437-5.514-4.723.684 1.126 2.801 1.777 4.45.804-4.747-1.204 2.334-9.47-3.871-14.105a6.524 6.524 0 0 0-3.912-1.283c-1.378 0-2.751.425-3.862 1.283-6.206 4.634.876 12.901-3.872 14.105 1.649.974 3.77.293 4.451-.804 1.064 2.286-2.551 4.043-5.514 4.723-2.978.682-3.178 2.466-3.178 4.004l.005.69h23.99l.005-.692c0-1.537-.2-3.32-3.178-4.002z" fill="#eaeaea"/><path d="M226.843 43.534c-3.439-.794-6.64-1.49-5.09-4.418 4.72-8.912 1.251-13.678-3.732-13.678-5.082 0-8.464 4.95-3.732 13.678 1.597 2.945-1.725 3.641-5.09 4.418-3.073.71-3.188 2.236-3.178 4.904l.004 1h23.99l.004-.969c.012-2.688-.092-4.222-3.176-4.935z" fill="#eaeaea"/><path d="M252.822 44.745c-2.967-.68-6.578-2.437-5.514-4.723.684 1.126 2.801 1.777 4.45.804-4.747-1.204 2.334-9.47-3.871-14.105a6.524 6.524 0 0 0-3.912-1.283c-1.378 0-2.751.425-3.862 1.283-6.206 4.634.876 12.901-3.872 14.105 1.649.974 3.77.293 4.451-.804 1.064 2.286-2.551 4.043-5.514 4.723-2.978.682-3.178 2.466-3.178 4.004l.005.69h23.99l.005-.692c0-1.537-.2-3.32-3.178-4.002z" fill="#eaeaea"/><path d="M20.823 68.894c-3.44-.794-6.64-1.49-5.09-4.419 4.72-8.911 1.25-13.677-3.732-13.677-5.083 0-8.465 4.948-3.733 13.677 1.597 2.946-1.725 3.642-5.09 4.419C.105 69.603-.01 71.129 0 73.797l.004 1h23.99L24 73.83c.012-2.688-.092-4.222-3.176-4.935z" fill="#eaeaea"/><path d="M46.216 70.105c-2.967-.681-6.578-2.438-5.514-4.724.684 1.126 2.801 1.778 4.45.805-4.747-1.205 2.334-9.472-3.87-14.106a6.524 6.524 0 0 0-3.913-1.282c-1.378 0-2.75.424-3.862 1.282-6.206 4.635.876 12.901-3.872 14.106 1.65.973 3.77.292 4.451-.805 1.064 2.287-2.55 4.043-5.514 4.724-2.978.681-3.178 2.465-3.178 4.004l.005.689h23.99l.005-.692c0-1.536-.2-3.32-3.178-4.001z" fill="#eaeaea"/><path d="M71.612 68.894c-3.439-.794-6.64-1.49-5.09-4.419 4.72-8.911 1.251-13.677-3.732-13.677-5.082 0-8.464 4.948-3.732 13.677 1.597 2.946-1.725 3.642-5.09 4.419-3.073.71-3.188 2.235-3.178 4.903l.004 1h23.99l.004-.968c.012-2.688-.092-4.222-3.176-4.935z" fill="#eaeaea"/><path d="M97.471 70.105c-2.967-.681-6.578-2.438-5.514-4.724.684 1.126 2.801 1.778 4.45.805-4.747-1.205 2.334-9.472-3.87-14.106a6.524 6.524 0 0 0-3.913-1.282c-1.378 0-2.75.424-3.862 1.282-6.206 4.635.876 12.901-3.872 14.106 1.65.973 3.77.292 4.451-.805 1.064 2.287-2.55 4.043-5.514 4.724-2.978.681-3.178 2.465-3.178 4.004l.005.689h23.99l.005-.692c0-1.536-.2-3.32-3.178-4.001z" fill="#eaeaea"/><path d="M123.099 68.894c-3.439-.794-6.64-1.49-5.09-4.419 4.72-8.911 1.251-13.677-3.732-13.677-5.082 0-8.464 4.948-3.732 13.677 1.597 2.946-1.725 3.642-5.09 4.419-3.073.71-3.188 2.235-3.178 4.903l.004 1h23.99l.004-.968c.012-2.688-.092-4.222-3.176-4.935z" fill="#eaeaea"/><path d="M148.822 70.105c-2.967-.681-6.578-2.438-5.514-4.724.684 1.126 2.801 1.778 4.45.805-4.747-1.205 2.334-9.472-3.871-14.106a6.524 6.524 0 0 0-3.912-1.282c-1.378 0-2.751.424-3.862 1.282-6.206 4.635.876 12.901-3.872 14.106 1.649.973 3.77.292 4.451-.805 1.064 2.287-2.551 4.043-5.514 4.724-2.978.681-3.178 2.465-3.178 4.004l.005.689h23.99l.005-.692c0-1.536-.2-3.32-3.178-4.001z" fill="#eaeaea"/><path d="M174.587 68.894c-3.439-.794-6.64-1.49-5.09-4.419 4.72-8.911 1.251-13.677-3.732-13.677-5.082 0-8.464 4.948-3.732 13.677 1.597 2.946-1.725 3.642-5.09 4.419-3.073.71-3.188 2.235-3.178 4.903l.004 1h23.99l.004-.968c.012-2.688-.092-4.222-3.176-4.935z" fill="#eaeaea"/><path d="M200.819 70.105c-2.967-.681-6.578-2.438-5.514-4.724.684 1.126 2.801 1.778 4.45.805-4.747-1.205 2.334-9.472-3.871-14.106a6.524 6.524 0 0 0-3.912-1.282c-1.378 0-2.751.424-3.862 1.282-6.206 4.635.876 12.901-3.872 14.106 1.649.973 3.77.292 4.451-.805 1.064 2.287-2.551 4.043-5.514 4.724-2.978.681-3.178 2.465-3.178 4.004l.005.689h23.99l.005-.692c0-1.536-.2-3.32-3.178-4.001z" fill="#eaeaea"/><path d="M226.843 68.894c-3.439-.794-6.64-1.49-5.09-4.419 4.72-8.911 1.251-13.677-3.732-13.677-5.082 0-8.464 4.948-3.732 13.677 1.597 2.946-1.725 3.642-5.09 4.419-3.073.71-3.188 2.235-3.178 4.903l.004 1h23.99l.004-.968c.012-2.688-.092-4.222-3.176-4.935z" fill="#eaeaea"/><path d="M252.822 70.105c-2.967-.681-6.578-2.438-5.514-4.724.684 1.126 2.801 1.778 4.45.805-4.747-1.205 2.334-9.472-3.871-14.106a6.524 6.524 0 0 0-3.912-1.282c-1.378 0-2.751.424-3.862 1.282-6.206 4.635.876 12.901-3.872 14.106 1.649.973 3.77.292 4.451-.805 1.064 2.287-2.551 4.043-5.514 4.724-2.978.681-3.178 2.465-3.178 4.004l.005.689h23.99l.005-.692c0-1.536-.2-3.32-3.178-4.001z" fill="#eaeaea"/><path d="M20.823 94.332c-3.44-.794-6.64-1.49-5.09-4.418 4.72-8.912 1.25-13.678-3.732-13.678-5.082 0-8.464 4.949-3.732 13.678 1.597 2.945-1.725 3.64-5.09 4.418C.106 95.042-.01 96.568 0 99.236l.004 1h23.99l.003-.97c.012-2.687-.091-4.221-3.175-4.934z" fill="#eaeaea"/><path d="M46.216 95.543c-2.967-.681-6.578-2.437-5.514-4.723.684 1.126 2.801 1.777 4.45.804-4.747-1.204 2.334-9.471-3.87-14.105a6.524 6.524 0 0 0-3.913-1.283c-1.378 0-2.75.425-3.862 1.283-6.206 4.634.876 12.9-3.872 14.105 1.65.974 3.77.293 4.451-.804 1.064 2.286-2.55 4.043-5.514 4.723-2.978.682-3.178 2.466-3.178 4.004l.005.689h23.99l.005-.691c0-1.537-.2-3.32-3.178-4.002z" fill="#eaeaea"/><path d="M71.612 94.332c-3.439-.794-6.64-1.49-5.09-4.418 4.72-8.912 1.251-13.678-3.732-13.678-5.082 0-8.464 4.949-3.732 13.678 1.597 2.945-1.725 3.64-5.09 4.418-3.073.71-3.188 2.236-3.178 4.904l.004 1h23.99l.004-.97c.012-2.687-.092-4.221-3.176-4.934z" fill="#eaeaea"/><path d="M97.471 95.543c-2.967-.681-6.578-2.437-5.514-4.723.684 1.126 2.801 1.777 4.45.804-4.747-1.204 2.334-9.471-3.87-14.105a6.524 6.524 0 0 0-3.913-1.283c-1.378 0-2.75.425-3.862 1.283-6.206 4.634.876 12.9-3.872 14.105 1.65.974 3.77.293 4.451-.804 1.064 2.286-2.55 4.043-5.514 4.723-2.978.682-3.178 2.466-3.178 4.004l.005.689h23.99l.005-.691c0-1.537-.2-3.32-3.178-4.002z" fill="#eaeaea"/><path d="M123.099 94.332c-3.439-.794-6.64-1.49-5.09-4.418 4.72-8.912 1.251-13.678-3.732-13.678-5.082 0-8.464 4.949-3.732 13.678 1.597 2.945-1.725 3.64-5.09 4.418-3.073.71-3.188 2.236-3.178 4.904l.004 1h23.99l.004-.97c.012-2.687-.092-4.221-3.176-4.934z" fill="#eaeaea"/><path d="M148.822 95.543c-2.967-.681-6.578-2.437-5.514-4.723.684 1.126 2.801 1.777 4.45.804-4.747-1.204 2.334-9.471-3.871-14.105a6.524 6.524 0 0 0-3.912-1.283c-1.378 0-2.751.425-3.862 1.283-6.206 4.634.876 12.9-3.872 14.105 1.649.974 3.77.293 4.451-.804 1.064 2.286-2.551 4.043-5.514 4.723-2.978.682-3.178 2.466-3.178 4.004l.005.689h23.99l.005-.691c0-1.537-.2-3.32-3.178-4.002z" fill="#eaeaea"/><path d="M174.587 94.332c-3.439-.794-6.64-1.49-5.09-4.418 4.72-8.912 1.251-13.678-3.732-13.678-5.082 0-8.464 4.949-3.732 13.678 1.597 2.945-1.725 3.64-5.09 4.418-3.073.71-3.188 2.236-3.178 4.904l.004 1h23.99l.004-.97c.012-2.687-.092-4.221-3.176-4.934z" fill="#eaeaea"/><path d="M200.819 95.543c-2.967-.681-6.578-2.437-5.514-4.723.684 1.126 2.801 1.777 4.45.804-4.747-1.204 2.334-9.471-3.871-14.105a6.524 6.524 0 0 0-3.912-1.283c-1.378 0-2.751.425-3.862 1.283-6.206 4.634.876 12.9-3.872 14.105 1.649.974 3.77.293 4.451-.804 1.064 2.286-2.551 4.043-5.514 4.723-2.978.682-3.178 2.466-3.178 4.004l.005.689h23.99l.005-.691c0-1.537-.2-3.32-3.178-4.002z" fill="#eaeaea"/><path d="M226.843 94.332c-3.439-.794-6.64-1.49-5.09-4.418 4.72-8.912 1.251-13.678-3.732-13.678-5.082 0-8.464 4.949-3.732 13.678 1.597 2.945-1.725 3.64-5.09 4.418-3.073.71-3.188 2.236-3.178 4.904l.004 1h23.99l.004-.97c.012-2.687-.092-4.221-3.176-4.934z" fill="#eaeaea"/><path d="M252.822 95.543c-2.967-.681-6.578-2.437-5.514-4.723.684 1.126 2.801 1.777 4.45.804-4.747-1.204 2.334-9.471-3.871-14.105a6.524 6.524 0 0 0-3.912-1.283c-1.378 0-2.751.425-3.862 1.283-6.206 4.634.876 12.9-3.872 14.105 1.649.974 3.77.293 4.451-.804 1.064 2.286-2.551 4.043-5.514 4.723-2.978.682-3.178 2.466-3.178 4.004l.005.689h23.99l.005-.691c0-1.537-.2-3.32-3.178-4.002z" fill="#eaeaea"/><path d="M20.823 121.377c-3.44-.794-6.64-1.49-5.09-4.418 4.72-8.912 1.25-13.678-3.732-13.678-5.082 0-8.464 4.949-3.732 13.678 1.597 2.945-1.725 3.641-5.09 4.418-3.073.71-3.188 2.236-3.178 4.904l.004 1h23.99l.003-.969c.012-2.688-.091-4.222-3.175-4.935z" fill="#eaeaea"/><path d="M46.216 122.588c-2.967-.681-6.578-2.437-5.514-4.723.684 1.126 2.801 1.777 4.45.804-4.747-1.204 2.334-9.471-3.87-14.105a6.524 6.524 0 0 0-3.913-1.283c-1.378 0-2.75.425-3.862 1.283-6.206 4.634.876 12.901-3.872 14.105 1.65.974 3.77.293 4.451-.804 1.064 2.286-2.55 4.043-5.514 4.723-2.978.682-3.178 2.466-3.178 4.004l.005.689h23.99l.005-.691c0-1.537-.2-3.32-3.178-4.002z" fill="#eaeaea"/><path d="M71.612 121.377c-3.439-.794-6.64-1.49-5.09-4.418 4.72-8.912 1.251-13.678-3.732-13.678-5.082 0-8.464 4.949-3.732 13.678 1.597 2.945-1.725 3.641-5.09 4.418-3.073.71-3.188 2.236-3.178 4.904l.004 1h23.99l.004-.969c.012-2.688-.092-4.222-3.176-4.935z" fill="#eaeaea"/><path d="M97.471 122.588c-2.967-.681-6.578-2.437-5.514-4.723.684 1.126 2.801 1.777 4.45.804-4.747-1.204 2.334-9.471-3.87-14.105a6.524 6.524 0 0 0-3.913-1.283c-1.378 0-2.75.425-3.862 1.283-6.206 4.634.876 12.901-3.872 14.105 1.65.974 3.77.293 4.451-.804 1.064 2.286-2.55 4.043-5.514 4.723-2.978.682-3.178 2.466-3.178 4.004l.005.689h23.99l.005-.691c0-1.537-.2-3.32-3.178-4.002z" fill="#eaeaea"/><path d="M123.099 121.377c-3.439-.794-6.64-1.49-5.09-4.418 4.72-8.912 1.251-13.678-3.732-13.678-5.082 0-8.464 4.949-3.732 13.678 1.597 2.945-1.725 3.641-5.09 4.418-3.073.71-3.188 2.236-3.178 4.904l.004 1h23.99l.004-.969c.012-2.688-.092-4.222-3.176-4.935z" fill="#eaeaea"/><path d="M148.822 122.588c-2.967-.681-6.578-2.437-5.514-4.723.684 1.126 2.801 1.777 4.45.804-4.747-1.204 2.334-9.471-3.871-14.105a6.524 6.524 0 0 0-3.912-1.283c-1.378 0-2.751.425-3.862 1.283-6.206 4.634.876 12.901-3.872 14.105 1.649.974 3.77.293 4.451-.804 1.064 2.286-2.551 4.043-5.514 4.723-2.978.682-3.178 2.466-3.178 4.004l.005.689h23.99l.005-.691c0-1.537-.2-3.32-3.178-4.002z" fill="#eaeaea"/><path d="M174.587 121.377c-3.439-.794-6.64-1.49-5.09-4.418 4.72-8.912 1.251-13.678-3.732-13.678-5.082 0-8.464 4.949-3.732 13.678 1.597 2.945-1.725 3.641-5.09 4.418-3.073.71-3.188 2.236-3.178 4.904l.004 1h23.99l.004-.969c.012-2.688-.092-4.222-3.176-4.935z" fill="#eaeaea"/><path d="M200.819 122.588c-2.967-.681-6.578-2.437-5.514-4.723.684 1.126 2.801 1.777 4.45.804-4.747-1.204 2.334-9.471-3.871-14.105a6.524 6.524 0 0 0-3.912-1.283c-1.378 0-2.751.425-3.862 1.283-6.206 4.634.876 12.901-3.872 14.105 1.649.974 3.77.293 4.451-.804 1.064 2.286-2.551 4.043-5.514 4.723-2.978.682-3.178 2.466-3.178 4.004l.005.689h23.99l.005-.691c0-1.537-.2-3.32-3.178-4.002z" fill="#eaeaea"/><path d="M226.843 121.377c-3.439-.794-6.64-1.49-5.09-4.418 4.72-8.912 1.251-13.678-3.732-13.678-5.082 0-8.464 4.949-3.732 13.678 1.597 2.945-1.725 3.641-5.09 4.418-3.073.71-3.188 2.236-3.178 4.904l.004 1h23.99l.004-.969c.012-2.688-.092-4.222-3.176-4.935z" fill="#eaeaea"/><path d="M252.822 122.588c-2.967-.681-6.578-2.437-5.514-4.723.684 1.126 2.801 1.777 4.45.804-4.747-1.204 2.334-9.471-3.871-14.105a6.524 6.524 0 0 0-3.912-1.283c-1.378 0-2.751.425-3.862 1.283-6.206 4.634.876 12.901-3.872 14.105 1.649.974 3.77.293 4.451-.804 1.064 2.286-2.551 4.043-5.514 4.723-2.978.682-3.178 2.466-3.178 4.004l.005.689h23.99l.005-.691c0-1.537-.2-3.32-3.178-4.002z" fill="#eaeaea"/><g><path d="M20.823 146.815c-3.44-.794-6.64-1.49-5.09-4.418 4.72-8.912 1.25-13.678-3.732-13.678-5.082 0-8.464 4.949-3.732 13.678 1.597 2.945-1.725 3.641-5.09 4.418-3.073.71-3.188 2.236-3.178 4.904l.004 1h23.99l.003-.969c.012-2.688-.091-4.222-3.175-4.935z" fill="#eaeaea"/></g><g><path d="M46.217 148.026c-2.968-.681-6.578-2.437-5.514-4.723.683 1.126 2.8 1.777 4.45.804-4.747-1.204 2.334-9.471-3.871-14.105a6.524 6.524 0 0 0-3.912-1.283c-1.378 0-2.752.425-3.862 1.283-6.207 4.634.875 12.901-3.873 14.105 1.65.974 3.77.293 4.451-.804 1.065 2.286-2.55 4.043-5.513 4.723-2.979.682-3.178 2.466-3.178 4.004l.005.689h23.99l.005-.691c0-1.537-.2-3.32-3.178-4.002z" fill="#eaeaea"/></g><g><path d="M71.612 146.815c-3.439-.794-6.64-1.49-5.09-4.418 4.72-8.912 1.251-13.678-3.732-13.678-5.082 0-8.464 4.949-3.732 13.678 1.597 2.945-1.725 3.641-5.09 4.418-3.073.71-3.188 2.236-3.178 4.904l.004 1h23.99l.004-.969c.012-2.688-.092-4.222-3.176-4.935z" fill="#eaeaea"/></g><g><path d="M97.471 148.026c-2.967-.681-6.578-2.437-5.514-4.723.684 1.126 2.801 1.777 4.45.804-4.747-1.204 2.334-9.471-3.87-14.105a6.524 6.524 0 0 0-3.913-1.283c-1.378 0-2.75.425-3.862 1.283-6.206 4.634.876 12.901-3.872 14.105 1.65.974 3.77.293 4.451-.804 1.064 2.286-2.55 4.043-5.514 4.723-2.978.682-3.178 2.466-3.178 4.004l.005.689h23.99l.005-.691c0-1.537-.2-3.32-3.178-4.002z" fill="#eaeaea"/></g><g><path d="M123.099 146.815c-3.439-.794-6.64-1.49-5.09-4.418 4.72-8.912 1.251-13.678-3.732-13.678-5.082 0-8.464 4.949-3.732 13.678 1.597 2.945-1.725 3.641-5.09 4.418-3.073.71-3.188 2.236-3.178 4.904l.004 1h23.99l.004-.969c.012-2.688-.092-4.222-3.176-4.935z" fill="#eaeaea"/></g><g><path d="M148.822 148.026c-2.967-.681-6.578-2.437-5.514-4.723.684 1.126 2.801 1.777 4.45.804-4.747-1.204 2.334-9.471-3.871-14.105a6.524 6.524 0 0 0-3.912-1.283c-1.378 0-2.751.425-3.862 1.283-6.206 4.634.876 12.901-3.872 14.105 1.649.974 3.77.293 4.451-.804 1.064 2.286-2.551 4.043-5.514 4.723-2.978.682-3.178 2.466-3.178 4.004l.005.689h23.99l.005-.691c0-1.537-.2-3.32-3.178-4.002z" fill="#eaeaea"/></g><g><path d="M174.587 146.815c-3.439-.794-6.64-1.49-5.09-4.418 4.72-8.912 1.251-13.678-3.732-13.678-5.082 0-8.464 4.949-3.732 13.678 1.597 2.945-1.725 3.641-5.09 4.418-3.073.71-3.188 2.236-3.178 4.904l.004 1h23.99l.004-.969c.012-2.688-.092-4.222-3.176-4.935z" fill="#eaeaea"/></g><g><path d="M200.819 148.026c-2.967-.681-6.578-2.437-5.514-4.723.684 1.126 2.801 1.777 4.45.804-4.747-1.204 2.334-9.471-3.871-14.105a6.524 6.524 0 0 0-3.912-1.283c-1.378 0-2.751.425-3.862 1.283-6.206 4.634.876 12.901-3.872 14.105 1.649.974 3.77.293 4.451-.804 1.064 2.286-2.551 4.043-5.514 4.723-2.978.682-3.178 2.466-3.178 4.004l.005.689h23.99l.005-.691c0-1.537-.2-3.32-3.178-4.002z" fill="#eaeaea"/></g><g><path d="M226.843 146.815c-3.439-.794-6.64-1.49-5.09-4.418 4.72-8.912 1.251-13.678-3.732-13.678-5.082 0-8.464 4.949-3.732 13.678 1.597 2.945-1.725 3.641-5.09 4.418-3.073.71-3.188 2.236-3.178 4.904l.004 1h23.99l.004-.969c.012-2.688-.092-4.222-3.176-4.935z" fill="#eaeaea"/></g><g><path d="M252.822 148.026c-2.967-.681-6.578-2.437-5.514-4.723.684 1.126 2.801 1.777 4.45.804-4.747-1.204 2.334-9.471-3.871-14.105a6.524 6.524 0 0 0-3.912-1.283c-1.378 0-2.751.425-3.862 1.283-6.206 4.634.876 12.901-3.872 14.105 1.649.974 3.77.293 4.451-.804 1.064 2.286-2.551 4.043-5.514 4.723-2.978.682-3.178 2.466-3.178 4.004l.005.689h23.99l.005-.691c0-1.537-.2-3.32-3.178-4.002z" fill="#eaeaea"/></g><g><path d="M20.823 172.21c-3.44-.794-6.64-1.49-5.09-4.418 4.72-8.912 1.25-13.678-3.732-13.678-5.082 0-8.464 4.949-3.732 13.678 1.597 2.945-1.725 3.641-5.09 4.418-3.073.71-3.188 2.236-3.178 4.904l.004 1h23.99l.003-.969c.012-2.688-.091-4.222-3.175-4.935z" fill="#eaeaea"/></g><g><path d="M46.217 173.421c-2.968-.681-6.578-2.437-5.514-4.723.683 1.126 2.8 1.777 4.45.804-4.747-1.204 2.334-9.471-3.871-14.105a6.524 6.524 0 0 0-3.912-1.283c-1.378 0-2.752.425-3.862 1.283-6.207 4.634.875 12.901-3.873 14.105 1.65.974 3.77.293 4.451-.804 1.065 2.286-2.55 4.043-5.513 4.723-2.979.682-3.178 2.466-3.178 4.004l.005.689h23.99l.005-.691c0-1.537-.2-3.32-3.178-4.002z" fill="#eaeaea"/></g><g><path d="M71.612 172.21c-3.439-.794-6.64-1.49-5.09-4.418 4.72-8.912 1.251-13.678-3.732-13.678-5.082 0-8.464 4.949-3.732 13.678 1.597 2.945-1.725 3.641-5.09 4.418-3.073.71-3.188 2.236-3.178 4.904l.004 1h23.99l.004-.969c.012-2.688-.092-4.222-3.176-4.935z" fill="#eaeaea"/></g><g><path d="M97.471 173.421c-2.967-.681-6.578-2.437-5.514-4.723.684 1.126 2.801 1.777 4.45.804-4.747-1.204 2.334-9.471-3.87-14.105a6.524 6.524 0 0 0-3.913-1.283c-1.378 0-2.75.425-3.862 1.283-6.206 4.634.876 12.901-3.872 14.105 1.65.974 3.77.293 4.451-.804 1.064 2.286-2.55 4.043-5.514 4.723-2.978.682-3.178 2.466-3.178 4.004l.005.689h23.99l.005-.691c0-1.537-.2-3.32-3.178-4.002z" fill="#eaeaea"/></g><g><path d="M123.099 172.21c-3.439-.794-6.64-1.49-5.09-4.418 4.72-8.912 1.251-13.678-3.732-13.678-5.082 0-8.464 4.949-3.732 13.678 1.597 2.945-1.725 3.641-5.09 4.418-3.073.71-3.188 2.236-3.178 4.904l.004 1h23.99l.004-.969c.012-2.688-.092-4.222-3.176-4.935z" fill="#eaeaea"/></g><g><path d="M148.822 173.421c-2.967-.681-6.578-2.437-5.514-4.723.684 1.126 2.801 1.777 4.45.804-4.747-1.204 2.334-9.471-3.871-14.105a6.524 6.524 0 0 0-3.912-1.283c-1.378 0-2.751.425-3.862 1.283-6.206 4.634.876 12.901-3.872 14.105 1.649.974 3.77.293 4.451-.804 1.064 2.286-2.551 4.043-5.514 4.723-2.978.682-3.178 2.466-3.178 4.004l.005.689h23.99l.005-.691c0-1.537-.2-3.32-3.178-4.002z" fill="#eaeaea"/></g><g><path d="M174.587 172.21c-3.439-.794-6.64-1.49-5.09-4.418 4.72-8.912 1.251-13.678-3.732-13.678-5.082 0-8.464 4.949-3.732 13.678 1.597 2.945-1.725 3.641-5.09 4.418-3.073.71-3.188 2.236-3.178 4.904l.004 1h23.99l.004-.969c.012-2.688-.092-4.222-3.176-4.935z" fill="#eaeaea"/></g><g><path d="M200.819 173.421c-2.967-.681-6.578-2.437-5.514-4.723.684 1.126 2.801 1.777 4.45.804-4.747-1.204 2.334-9.471-3.871-14.105a6.524 6.524 0 0 0-3.912-1.283c-1.378 0-2.751.425-3.862 1.283-6.206 4.634.876 12.901-3.872 14.105 1.649.974 3.77.293 4.451-.804 1.064 2.286-2.551 4.043-5.514 4.723-2.978.682-3.178 2.466-3.178 4.004l.005.689h23.99l.005-.691c0-1.537-.2-3.32-3.178-4.002z" fill="#eaeaea"/></g><g><path d="M226.843 172.21c-3.439-.794-6.64-1.49-5.09-4.418 4.72-8.912 1.251-13.678-3.732-13.678-5.082 0-8.464 4.949-3.732 13.678 1.597 2.945-1.725 3.641-5.09 4.418-3.073.71-3.188 2.236-3.178 4.904l.004 1h23.99l.004-.969c.012-2.688-.092-4.222-3.176-4.935z" fill="#eaeaea"/></g><g><path d="M252.822 173.421c-2.967-.681-6.578-2.437-5.514-4.723.684 1.126 2.801 1.777 4.45.804-4.747-1.204 2.334-9.471-3.871-14.105a6.524 6.524 0 0 0-3.912-1.283c-1.378 0-2.751.425-3.862 1.283-6.206 4.634.876 12.901-3.872 14.105 1.649.974 3.77.293 4.451-.804 1.064 2.286-2.551 4.043-5.514 4.723-2.978.682-3.178 2.466-3.178 4.004l.005.689h23.99l.005-.691c0-1.537-.2-3.32-3.178-4.002z" fill="#eaeaea"/></g><g><path d="M20.823 197.649c-3.44-.794-6.64-1.49-5.09-4.418 4.72-8.912 1.25-13.678-3.732-13.678-5.082 0-8.464 4.949-3.732 13.678 1.597 2.945-1.725 3.641-5.09 4.418-3.073.71-3.188 2.236-3.178 4.904l.004 1h23.99l.003-.969c.012-2.688-.091-4.222-3.175-4.935z" fill="#eaeaea"/></g><g><path d="M46.217 198.86c-2.968-.681-6.578-2.437-5.514-4.723.683 1.126 2.8 1.777 4.45.804-4.747-1.204 2.334-9.471-3.871-14.105a6.524 6.524 0 0 0-3.912-1.283c-1.378 0-2.752.425-3.862 1.283-6.207 4.634.875 12.901-3.873 14.105 1.65.974 3.77.293 4.451-.804 1.065 2.286-2.55 4.043-5.513 4.723-2.979.682-3.178 2.466-3.178 4.004l.005.689h23.99l.005-.691c0-1.537-.2-3.32-3.178-4.002z" fill="#eaeaea"/></g><g><path d="M71.612 197.649c-3.439-.794-6.64-1.49-5.09-4.418 4.72-8.912 1.251-13.678-3.732-13.678-5.082 0-8.464 4.949-3.732 13.678 1.597 2.945-1.725 3.641-5.09 4.418-3.073.71-3.188 2.236-3.178 4.904l.004 1h23.99l.004-.969c.012-2.688-.092-4.222-3.176-4.935z" fill="#eaeaea"/></g><g><path d="M97.471 198.86c-2.967-.681-6.578-2.437-5.514-4.723.684 1.126 2.801 1.777 4.45.804-4.747-1.204 2.334-9.471-3.87-14.105a6.524 6.524 0 0 0-3.913-1.283c-1.378 0-2.75.425-3.862 1.283-6.206 4.634.876 12.901-3.872 14.105 1.65.974 3.77.293 4.451-.804 1.064 2.286-2.55 4.043-5.514 4.723-2.978.682-3.178 2.466-3.178 4.004l.005.689h23.99l.005-.691c0-1.537-.2-3.32-3.178-4.002z" fill="#eaeaea"/></g><g><path d="M123.099 197.649c-3.439-.794-6.64-1.49-5.09-4.418 4.72-8.912 1.251-13.678-3.732-13.678-5.082 0-8.464 4.949-3.732 13.678 1.597 2.945-1.725 3.641-5.09 4.418-3.073.71-3.188 2.236-3.178 4.904l.004 1h23.99l.004-.969c.012-2.688-.092-4.222-3.176-4.935z" fill="#eaeaea"/></g><g><path d="M148.822 198.86c-2.967-.681-6.578-2.437-5.514-4.723.684 1.126 2.801 1.777 4.45.804-4.747-1.204 2.334-9.471-3.871-14.105a6.524 6.524 0 0 0-3.912-1.283c-1.378 0-2.751.425-3.862 1.283-6.206 4.634.876 12.901-3.872 14.105 1.649.974 3.77.293 4.451-.804 1.064 2.286-2.551 4.043-5.514 4.723-2.978.682-3.178 2.466-3.178 4.004l.005.689h23.99l.005-.691c0-1.537-.2-3.32-3.178-4.002z" fill="#eaeaea"/></g><g><path d="M174.587 197.649c-3.439-.794-6.64-1.49-5.09-4.418 4.72-8.912 1.251-13.678-3.732-13.678-5.082 0-8.464 4.949-3.732 13.678 1.597 2.945-1.725 3.641-5.09 4.418-3.073.71-3.188 2.236-3.178 4.904l.004 1h23.99l.004-.969c.012-2.688-.092-4.222-3.176-4.935z" fill="#eaeaea"/></g><g><path d="M200.819 198.86c-2.967-.681-6.578-2.437-5.514-4.723.684 1.126 2.801 1.777 4.45.804-4.747-1.204 2.334-9.471-3.871-14.105a6.524 6.524 0 0 0-3.912-1.283c-1.378 0-2.751.425-3.862 1.283-6.206 4.634.876 12.901-3.872 14.105 1.649.974 3.77.293 4.451-.804 1.064 2.286-2.551 4.043-5.514 4.723-2.978.682-3.178 2.466-3.178 4.004l.005.689h23.99l.005-.691c0-1.537-.2-3.32-3.178-4.002z" fill="#eaeaea"/></g><g><path d="M226.843 197.649c-3.439-.794-6.64-1.49-5.09-4.418 4.72-8.912 1.251-13.678-3.732-13.678-5.082 0-8.464 4.949-3.732 13.678 1.597 2.945-1.725 3.641-5.09 4.418-3.073.71-3.188 2.236-3.178 4.904l.004 1h23.99l.004-.969c.012-2.688-.092-4.222-3.176-4.935z" fill="#eaeaea"/></g><g><path d="M252.822 198.86c-2.967-.681-6.578-2.437-5.514-4.723.684 1.126 2.801 1.777 4.45.804-4.747-1.204 2.334-9.471-3.871-14.105a6.524 6.524 0 0 0-3.912-1.283c-1.378 0-2.751.425-3.862 1.283-6.206 4.634.876 12.901-3.872 14.105 1.649.974 3.77.293 4.451-.804 1.064 2.286-2.551 4.043-5.514 4.723-2.978.682-3.178 2.466-3.178 4.004l.005.689h23.99l.005-.691c0-1.537-.2-3.32-3.178-4.002z" fill="#eaeaea"/></g><g><path d="M20.823 224.658c-3.44-.794-6.64-1.49-5.09-4.418 4.72-8.912 1.25-13.678-3.732-13.678-5.082 0-8.464 4.949-3.732 13.678 1.597 2.945-1.725 3.641-5.09 4.418-3.073.71-3.188 2.236-3.178 4.904l.004 1h23.99l.003-.969c.012-2.688-.091-4.222-3.175-4.935z" fill="#eaeaea"/></g><g><path d="M46.217 225.869c-2.968-.681-6.578-2.437-5.514-4.723.683 1.126 2.8 1.777 4.45.804-4.747-1.204 2.334-9.471-3.871-14.105a6.524 6.524 0 0 0-3.912-1.283c-1.378 0-2.752.425-3.862 1.283-6.207 4.634.875 12.901-3.873 14.105 1.65.974 3.77.293 4.451-.804 1.065 2.286-2.55 4.043-5.513 4.723-2.979.682-3.178 2.466-3.178 4.004l.005.689h23.99l.005-.691c0-1.537-.2-3.32-3.178-4.002z" fill="#eaeaea"/></g><g><path d="M71.612 224.658c-3.439-.794-6.64-1.49-5.09-4.418 4.72-8.912 1.251-13.678-3.732-13.678-5.082 0-8.464 4.949-3.732 13.678 1.597 2.945-1.725 3.641-5.09 4.418-3.073.71-3.188 2.236-3.178 4.904l.004 1h23.99l.004-.969c.012-2.688-.092-4.222-3.176-4.935z" fill="#eaeaea"/></g><g><path d="M97.471 225.869c-2.967-.681-6.578-2.437-5.514-4.723.684 1.126 2.801 1.777 4.45.804-4.747-1.204 2.334-9.471-3.87-14.105a6.524 6.524 0 0 0-3.913-1.283c-1.378 0-2.75.425-3.862 1.283-6.206 4.634.876 12.901-3.872 14.105 1.65.974 3.77.293 4.451-.804 1.064 2.286-2.55 4.043-5.514 4.723-2.978.682-3.178 2.466-3.178 4.004l.005.689h23.99l.005-.691c0-1.537-.2-3.32-3.178-4.002z" fill="#eaeaea"/></g><g><path d="M123.099 224.658c-3.439-.794-6.64-1.49-5.09-4.418 4.72-8.912 1.251-13.678-3.732-13.678-5.082 0-8.464 4.949-3.732 13.678 1.597 2.945-1.725 3.641-5.09 4.418-3.073.71-3.188 2.236-3.178 4.904l.004 1h23.99l.004-.969c.012-2.688-.092-4.222-3.176-4.935z" fill="#eaeaea"/></g><g><path d="M148.822 225.869c-2.967-.681-6.578-2.437-5.514-4.723.684 1.126 2.801 1.777 4.45.804-4.747-1.204 2.334-9.471-3.871-14.105a6.524 6.524 0 0 0-3.912-1.283c-1.378 0-2.751.425-3.862 1.283-6.206 4.634.876 12.901-3.872 14.105 1.649.974 3.77.293 4.451-.804 1.064 2.286-2.551 4.043-5.514 4.723-2.978.682-3.178 2.466-3.178 4.004l.005.689h23.99l.005-.691c0-1.537-.2-3.32-3.178-4.002z" fill="#eaeaea"/></g><g><path d="M174.587 224.658c-3.439-.794-6.64-1.49-5.09-4.418 4.72-8.912 1.251-13.678-3.732-13.678-5.082 0-8.464 4.949-3.732 13.678 1.597 2.945-1.725 3.641-5.09 4.418-3.073.71-3.188 2.236-3.178 4.904l.004 1h23.99l.004-.969c.012-2.688-.092-4.222-3.176-4.935z" fill="#eaeaea"/></g><g><path d="M200.819 225.869c-2.967-.681-6.578-2.437-5.514-4.723.684 1.126 2.801 1.777 4.45.804-4.747-1.204 2.334-9.471-3.871-14.105a6.524 6.524 0 0 0-3.912-1.283c-1.378 0-2.751.425-3.862 1.283-6.206 4.634.876 12.901-3.872 14.105 1.649.974 3.77.293 4.451-.804 1.064 2.286-2.551 4.043-5.514 4.723-2.978.682-3.178 2.466-3.178 4.004l.005.689h23.99l.005-.691c0-1.537-.2-3.32-3.178-4.002z" fill="#eaeaea"/></g><g><path d="M226.843 224.658c-3.439-.794-6.64-1.49-5.09-4.418 4.72-8.912 1.251-13.678-3.732-13.678-5.082 0-8.464 4.949-3.732 13.678 1.597 2.945-1.725 3.641-5.09 4.418-3.073.71-3.188 2.236-3.178 4.904l.004 1h23.99l.004-.969c.012-2.688-.092-4.222-3.176-4.935z" fill="#eaeaea"/></g><g><path d="M252.822 225.869c-2.967-.681-6.578-2.437-5.514-4.723.684 1.126 2.801 1.777 4.45.804-4.747-1.204 2.334-9.471-3.871-14.105a6.524 6.524 0 0 0-3.912-1.283c-1.378 0-2.751.425-3.862 1.283-6.206 4.634.876 12.901-3.872 14.105 1.649.974 3.77.293 4.451-.804 1.064 2.286-2.551 4.043-5.514 4.723-2.978.682-3.178 2.466-3.178 4.004l.005.689h23.99l.005-.691c0-1.537-.2-3.32-3.178-4.002z" fill="#eaeaea"/></g><g><path d="M20.823 250.096c-3.44-.794-6.64-1.49-5.09-4.418C20.453 236.766 16.983 232 12 232c-5.082 0-8.464 4.949-3.732 13.678 1.597 2.945-1.725 3.641-5.09 4.418C.106 250.806-.01 252.332 0 255l.004 1h23.99l.004-.969c.012-2.688-.092-4.222-3.176-4.935z" fill="#eaeaea"/></g><g><path d="M46.217 251.307c-2.968-.681-6.578-2.437-5.514-4.723.683 1.126 2.8 1.777 4.45.804-4.747-1.204 2.334-9.471-3.871-14.105A6.524 6.524 0 0 0 37.37 232c-1.378 0-2.752.425-3.862 1.283-6.207 4.634.875 12.901-3.873 14.105 1.65.974 3.77.293 4.451-.804 1.065 2.286-2.55 4.043-5.513 4.723-2.979.682-3.178 2.466-3.178 4.004l.005.689h23.99l.005-.691c0-1.537-.2-3.32-3.178-4.002z" fill="#eaeaea"/></g><g><path d="M71.612 250.096c-3.439-.794-6.64-1.49-5.09-4.418C71.242 236.766 67.773 232 62.79 232c-5.082 0-8.464 4.949-3.732 13.678 1.597 2.945-1.725 3.641-5.09 4.418-3.073.71-3.188 2.236-3.178 4.904l.004 1h23.99l.004-.969c.012-2.688-.092-4.222-3.176-4.935z" fill="#eaeaea"/></g><g><path d="M97.471 251.307c-2.967-.681-6.578-2.437-5.514-4.723.684 1.126 2.801 1.777 4.45.804-4.747-1.204 2.334-9.471-3.87-14.105A6.524 6.524 0 0 0 88.623 232c-1.378 0-2.75.425-3.862 1.283-6.206 4.634.876 12.901-3.872 14.105 1.65.974 3.77.293 4.451-.804 1.064 2.286-2.55 4.043-5.514 4.723-2.978.682-3.178 2.466-3.178 4.004l.005.689h23.99l.005-.691c0-1.537-.2-3.32-3.178-4.002z" fill="#eaeaea"/></g><g><path d="M123.099 250.096c-3.439-.794-6.64-1.49-5.09-4.418 4.72-8.912 1.251-13.678-3.732-13.678-5.082 0-8.464 4.949-3.732 13.678 1.597 2.945-1.725 3.641-5.09 4.418-3.073.71-3.188 2.236-3.178 4.904l.004 1h23.99l.004-.969c.012-2.688-.092-4.222-3.176-4.935z" fill="#eaeaea"/></g><g><path d="M148.822 251.307c-2.967-.681-6.578-2.437-5.514-4.723.684 1.126 2.801 1.777 4.45.804-4.747-1.204 2.334-9.471-3.871-14.105a6.524 6.524 0 0 0-3.912-1.283c-1.378 0-2.751.425-3.862 1.283-6.206 4.634.876 12.901-3.872 14.105 1.649.974 3.77.293 4.451-.804 1.064 2.286-2.551 4.043-5.514 4.723-2.978.682-3.178 2.466-3.178 4.004l.005.689h23.99l.005-.691c0-1.537-.2-3.32-3.178-4.002z" fill="#eaeaea"/></g><g><path d="M174.587 250.096c-3.439-.794-6.64-1.49-5.09-4.418 4.72-8.912 1.251-13.678-3.732-13.678-5.082 0-8.464 4.949-3.732 13.678 1.597 2.945-1.725 3.641-5.09 4.418-3.073.71-3.188 2.236-3.178 4.904l.004 1h23.99l.004-.969c.012-2.688-.092-4.222-3.176-4.935z" fill="#eaeaea"/></g><g><path d="M200.819 251.307c-2.967-.681-6.578-2.437-5.514-4.723.684 1.126 2.801 1.777 4.45.804-4.747-1.204 2.334-9.471-3.871-14.105a6.524 6.524 0 0 0-3.912-1.283c-1.378 0-2.751.425-3.862 1.283-6.206 4.634.876 12.901-3.872 14.105 1.649.974 3.77.293 4.451-.804 1.064 2.286-2.551 4.043-5.514 4.723-2.978.682-3.178 2.466-3.178 4.004l.005.689h23.99l.005-.691c0-1.537-.2-3.32-3.178-4.002z" fill="#eaeaea"/></g><g><path d="M226.843 250.096c-3.439-.794-6.64-1.49-5.09-4.418 4.72-8.912 1.251-13.678-3.732-13.678-5.082 0-8.464 4.949-3.732 13.678 1.597 2.945-1.725 3.641-5.09 4.418-3.073.71-3.188 2.236-3.178 4.904l.004 1h23.99l.004-.969c.012-2.688-.092-4.222-3.176-4.935z" fill="#eaeaea"/></g><g><path d="M252.822 251.307c-2.967-.681-6.578-2.437-5.514-4.723.684 1.126 2.801 1.777 4.45.804-4.747-1.204 2.334-9.471-3.871-14.105a6.524 6.524 0 0 0-3.912-1.283c-1.378 0-2.751.425-3.862 1.283-6.206 4.634.876 12.901-3.872 14.105 1.649.974 3.77.293 4.451-.804 1.064 2.286-2.551 4.043-5.514 4.723-2.978.682-3.178 2.466-3.178 4.004l.005.689h23.99l.005-.691c0-1.537-.2-3.32-3.178-4.002z" fill="#eaeaea"/></g></symbol><symbol viewBox="0 0 24 24" id="about__money"><path d="M19 16.166c0-3.529-3.023-4.962-6-6.255V5.258c1.42.052 2.85.453 4.16.914l.725-3.295c-1.814-.551-3.438-.803-4.885-.841V0h-2v2.134c-3.891.535-5.969 2.975-5.969 5.7 0 3.857 3.558 5.126 5.969 5.919v4.712c-1.706-.019-3.592-.62-5.091-1.202L5 20.551c1.787.923 3.931 1.417 6 1.453V24h2v-2.105c3.312-.464 6.005-2.293 6-5.729M11 5.523v3.482c-1.611-.921-1.678-2.771 0-3.482m2 12.601v-3.591c1.841 1.065 1.605 2.864 0 3.591z" fill="#eaeaea"/></symbol><symbol viewBox="0 0 24 24" id="about__twitter"><path d="M24 4.557a9.83 9.83 0 0 1-2.828.775 4.932 4.932 0 0 0 2.165-2.724 9.864 9.864 0 0 1-3.127 1.195 4.916 4.916 0 0 0-3.594-1.555c-3.179 0-5.515 2.966-4.797 6.045A13.978 13.978 0 0 1 1.671 3.149a4.93 4.93 0 0 0 1.523 6.574 4.903 4.903 0 0 1-2.229-.616c-.054 2.281 1.581 4.415 3.949 4.89a4.935 4.935 0 0 1-2.224.084 4.928 4.928 0 0 0 4.6 3.419A9.9 9.9 0 0 1 0 19.54a13.94 13.94 0 0 0 7.548 2.212c9.142 0 14.307-7.721 13.995-14.646A10.025 10.025 0 0 0 24 4.557z" fill="#eaeaea"/></symbol><symbol viewBox="0 0 256 52" id="about__volunteers"><path d="M20.823 19.377c-3.44-.794-6.64-1.49-5.09-4.418C20.453 6.047 16.983 1.28 12 1.28c-5.082 0-8.464 4.949-3.732 13.678 1.597 2.945-1.725 3.64-5.09 4.418C.106 20.087-.01 21.613 0 24.28l.004 1h23.99l.003-.97c.012-2.687-.091-4.221-3.175-4.934z" fill-rule="evenodd" fill="#eaeaea"/><path d="M46.216 20.588c-2.967-.681-6.578-2.437-5.514-4.723.684 1.126 2.801 1.777 4.45.804-4.747-1.204 2.334-9.471-3.87-14.105a6.524 6.524 0 0 0-3.913-1.283c-1.378 0-2.75.425-3.862 1.283-6.206 4.634.876 12.9-3.872 14.105 1.65.974 3.77.293 4.451-.804 1.064 2.286-2.55 4.043-5.514 4.723-2.978.682-3.178 2.466-3.178 4.004l.005.689h23.99l.005-.691c0-1.537-.2-3.32-3.178-4.002z" fill-rule="evenodd" fill="#eaeaea"/><path d="M71.612 19.377c-3.439-.794-6.64-1.49-5.09-4.418C71.242 6.047 67.773 1.28 62.79 1.28c-5.082 0-8.464 4.949-3.732 13.678 1.597 2.945-1.725 3.64-5.09 4.418-3.073.71-3.188 2.236-3.178 4.904l.004 1h23.99l.004-.97c.012-2.687-.092-4.221-3.176-4.934z" fill-rule="evenodd" fill="#eaeaea"/><path d="M97.471 20.588c-2.967-.681-6.578-2.437-5.514-4.723.684 1.126 2.801 1.777 4.45.804-4.747-1.204 2.334-9.471-3.87-14.105a6.524 6.524 0 0 0-3.913-1.283c-1.378 0-2.75.425-3.862 1.283-6.206 4.634.876 12.9-3.872 14.105 1.65.974 3.77.293 4.451-.804 1.064 2.286-2.55 4.043-5.514 4.723-2.978.682-3.178 2.466-3.178 4.004l.005.689h23.99l.005-.691c0-1.537-.2-3.32-3.178-4.002z" fill-rule="evenodd" fill="#eaeaea"/><path d="M123.099 19.377c-3.439-.794-6.64-1.49-5.09-4.418 4.72-8.912 1.251-13.678-3.732-13.678-5.082 0-8.464 4.949-3.732 13.678 1.597 2.945-1.725 3.64-5.09 4.418-3.073.71-3.188 2.236-3.178 4.904l.004 1h23.99l.004-.97c.012-2.687-.092-4.221-3.176-4.934z" fill-rule="evenodd" fill="#eaeaea"/><path d="M148.822 20.588c-2.967-.681-6.578-2.437-5.514-4.723.684 1.126 2.801 1.777 4.45.804-4.747-1.204 2.334-9.471-3.871-14.105a6.524 6.524 0 0 0-3.912-1.283c-1.378 0-2.751.425-3.862 1.283-6.206 4.634.876 12.9-3.872 14.105 1.649.974 3.77.293 4.451-.804 1.064 2.286-2.551 4.043-5.514 4.723-2.978.682-3.178 2.466-3.178 4.004l.005.689h23.99l.005-.691c0-1.537-.2-3.32-3.178-4.002z" fill-rule="evenodd" fill="#eaeaea"/><path d="M174.587 19.377c-3.439-.794-6.64-1.49-5.09-4.418 4.72-8.912 1.251-13.678-3.732-13.678-5.082 0-8.464 4.949-3.732 13.678 1.597 2.945-1.725 3.64-5.09 4.418-3.073.71-3.188 2.236-3.178 4.904l.004 1h23.99l.004-.97c.012-2.687-.092-4.221-3.176-4.934z" fill-rule="evenodd" fill="#eaeaea"/><path d="M200.819 20.588c-2.967-.681-6.578-2.437-5.514-4.723.684 1.126 2.801 1.777 4.45.804-4.747-1.204 2.334-9.471-3.871-14.105a6.524 6.524 0 0 0-3.912-1.283c-1.378 0-2.751.425-3.862 1.283-6.206 4.634.876 12.9-3.872 14.105 1.649.974 3.77.293 4.451-.804 1.064 2.286-2.551 4.043-5.514 4.723-2.978.682-3.178 2.466-3.178 4.004l.005.689h23.99l.005-.691c0-1.537-.2-3.32-3.178-4.002z" fill-rule="evenodd" fill="#eaeaea"/><path d="M226.843 19.377c-3.439-.794-6.64-1.49-5.09-4.418 4.72-8.912 1.251-13.678-3.732-13.678-5.082 0-8.464 4.949-3.732 13.678 1.597 2.945-1.725 3.64-5.09 4.418-3.073.71-3.188 2.236-3.178 4.904l.004 1h23.99l.004-.97c.012-2.687-.092-4.221-3.176-4.934z" fill-rule="evenodd" fill="#eaeaea"/><path d="M252.822 20.588c-2.967-.681-6.578-2.437-5.514-4.723.684 1.126 2.801 1.777 4.45.804-4.747-1.204 2.334-9.471-3.871-14.105a6.524 6.524 0 0 0-3.912-1.283c-1.378 0-2.751.425-3.862 1.283-6.206 4.634.876 12.9-3.872 14.105 1.649.974 3.77.293 4.451-.804 1.064 2.286-2.551 4.043-5.514 4.723-2.978.682-3.178 2.466-3.178 4.004l.005.689h23.99l.005-.691c0-1.537-.2-3.32-3.178-4.002z" fill-rule="evenodd" fill="#eaeaea"/><g><path d="M20.823 44.815c-3.44-.794-6.64-1.49-5.09-4.418 4.72-8.912 1.25-13.678-3.732-13.678-5.082 0-8.464 4.95-3.732 13.678 1.597 2.945-1.725 3.641-5.09 4.418C.106 45.525-.01 47.051 0 49.72l.004 1h23.99l.003-.969c.012-2.688-.091-4.222-3.175-4.935z" fill-rule="evenodd" fill="#eaeaea"/></g><g><path d="M46.216 46.026c-2.967-.68-6.578-2.437-5.514-4.723.684 1.126 2.801 1.777 4.45.804-4.747-1.204 2.334-9.47-3.87-14.105a6.524 6.524 0 0 0-3.913-1.283c-1.378 0-2.75.425-3.862 1.283-6.206 4.634.876 12.901-3.872 14.105 1.65.974 3.77.293 4.451-.804 1.064 2.286-2.55 4.043-5.514 4.723-2.978.682-3.178 2.466-3.178 4.004l.005.69h23.99l.005-.692c0-1.537-.2-3.32-3.178-4.002z" fill-rule="evenodd" fill="#eaeaea"/></g><g><path d="M71.612 44.815c-3.439-.794-6.64-1.49-5.09-4.418 4.72-8.912 1.251-13.678-3.732-13.678-5.082 0-8.464 4.95-3.732 13.678 1.597 2.945-1.725 3.641-5.09 4.418-3.073.71-3.188 2.236-3.178 4.904l.004 1h23.99l.004-.969c.012-2.688-.092-4.222-3.176-4.935z" fill-rule="evenodd" fill="#eaeaea"/></g><g><path d="M97.471 46.026c-2.967-.68-6.578-2.437-5.514-4.723.684 1.126 2.801 1.777 4.45.804-4.747-1.204 2.334-9.47-3.87-14.105a6.524 6.524 0 0 0-3.913-1.283c-1.378 0-2.75.425-3.862 1.283-6.206 4.634.876 12.901-3.872 14.105 1.65.974 3.77.293 4.451-.804 1.064 2.286-2.55 4.043-5.514 4.723-2.978.682-3.178 2.466-3.178 4.004l.005.69h23.99l.005-.692c0-1.537-.2-3.32-3.178-4.002z" fill-rule="evenodd" fill="#eaeaea"/></g><g><path d="M123.099 44.815c-3.439-.794-6.64-1.49-5.09-4.418 4.72-8.912 1.251-13.678-3.732-13.678-5.082 0-8.464 4.95-3.732 13.678 1.597 2.945-1.725 3.641-5.09 4.418-3.073.71-3.188 2.236-3.178 4.904l.004 1h23.99l.004-.969c.012-2.688-.092-4.222-3.176-4.935z" fill-rule="evenodd" fill="#eaeaea"/></g><g><path d="M148.822 46.026c-2.967-.68-6.578-2.437-5.514-4.723.684 1.126 2.801 1.777 4.45.804-4.747-1.204 2.334-9.47-3.871-14.105a6.524 6.524 0 0 0-3.912-1.283c-1.378 0-2.751.425-3.862 1.283-6.206 4.634.876 12.901-3.872 14.105 1.649.974 3.77.293 4.451-.804 1.064 2.286-2.551 4.043-5.514 4.723-2.978.682-3.178 2.466-3.178 4.004l.005.69h23.99l.005-.692c0-1.537-.2-3.32-3.178-4.002z" fill-rule="evenodd" fill="#eaeaea"/></g><g><path d="M174.587 44.815c-3.439-.794-6.64-1.49-5.09-4.418 4.72-8.912 1.251-13.678-3.732-13.678-5.082 0-8.464 4.95-3.732 13.678 1.597 2.945-1.725 3.641-5.09 4.418-3.073.71-3.188 2.236-3.178 4.904l.004 1h23.99l.004-.969c.012-2.688-.092-4.222-3.176-4.935z" fill-rule="evenodd" fill="#eaeaea"/></g><g><path d="M200.819 46.026c-2.967-.68-6.578-2.437-5.514-4.723.684 1.126 2.801 1.777 4.45.804-4.747-1.204 2.334-9.47-3.871-14.105a6.524 6.524 0 0 0-3.912-1.283c-1.378 0-2.751.425-3.862 1.283-6.206 4.634.876 12.901-3.872 14.105 1.649.974 3.77.293 4.451-.804 1.064 2.286-2.551 4.043-5.514 4.723-2.978.682-3.178 2.466-3.178 4.004l.005.69h23.99l.005-.692c0-1.537-.2-3.32-3.178-4.002z" fill-rule="evenodd" fill="#eaeaea"/></g><g><path d="M226.843 44.815c-3.439-.794-6.64-1.49-5.09-4.418 4.72-8.912 1.251-13.678-3.732-13.678-5.082 0-8.464 4.95-3.732 13.678 1.597 2.945-1.725 3.641-5.09 4.418-3.073.71-3.188 2.236-3.178 4.904l.004 1h23.99l.004-.969c.012-2.688-.092-4.222-3.176-4.935z" fill-rule="evenodd" fill="#eaeaea"/></g><g><path d="M252.822 46.026c-2.967-.68-6.578-2.437-5.514-4.723.684 1.126 2.801 1.777 4.45.804-4.747-1.204 2.334-9.47-3.871-14.105a6.524 6.524 0 0 0-3.912-1.283c-1.378 0-2.751.425-3.862 1.283-6.206 4.634.876 12.901-3.872 14.105 1.649.974 3.77.293 4.451-.804 1.064 2.286-2.551 4.043-5.514 4.723-2.978.682-3.178 2.466-3.178 4.004l.005.69h23.99l.005-.692c0-1.537-.2-3.32-3.178-4.002z" fill-rule="evenodd" fill="#eaeaea"/></g></symbol><symbol viewBox="0 0 100 100" id="qn__caret"><path d="M40 90l40-40-40-40" fill="none"/></symbol><symbol viewBox="0 0 24 24" id="qn__facebook"><path d="M12 2c5.514 0 10 4.486 10 10s-4.486 10-10 10S2 17.514 2 12 6.486 2 12 2zm0-2C5.373 0 0 5.373 0 12s5.373 12 12 12 12-5.373 12-12S18.627 0 12 0zm-2 10H8v2h2v6h3v-6h1.82l.18-2h-2v-.833c0-.478.096-.667.558-.667H15V6h-2.404C10.798 6 10 6.792 10 8.308V10z"/></symbol><symbol viewBox="0 0 24 24" id="qn__github"><path d="M12 2c5.514 0 10 4.486 10 10s-4.486 10-10 10S2 17.514 2 12 6.486 2 12 2zm0-2C5.373 0 0 5.373 0 12s5.373 12 12 12 12-5.373 12-12S18.627 0 12 0zm0 6a6 6 0 0 0-1.896 11.693c.3.056.396-.13.396-.289v-1.117c-1.669.363-2.017-.707-2.017-.707-.272-.693-.666-.878-.666-.878-.544-.373.041-.365.041-.365.603.042.92.619.92.619.535.917 1.403.652 1.746.499.054-.388.209-.652.381-.802-1.333-.152-2.733-.667-2.733-2.965 0-.655.234-1.19.618-1.61-.062-.153-.268-.764.058-1.59 0 0 .504-.161 1.65.615A5.782 5.782 0 0 1 12 8.901c.51.002 1.023.069 1.503.202 1.146-.776 1.648-.615 1.648-.615.327.826.121 1.437.06 1.588.385.42.617.955.617 1.61 0 2.305-1.404 2.812-2.74 2.96.216.186.412.551.412 1.111v1.646c0 .16.096.347.4.288A6 6 0 0 0 12 6z"/></symbol><symbol viewBox="0 0 24 24" id="qn__googleplus"><path d="M12 2c5.514 0 10 4.486 10 10s-4.486 10-10 10S2 17.514 2 12 6.486 2 12 2zm0-2C5.373 0 0 5.373 0 12s5.373 12 12 12 12-5.373 12-12S18.627 0 12 0zM9.5 11.5v1.2h1.985c-.08.514-.601 1.51-1.985 1.51-1.194 0-2.17-.99-2.17-2.21s.976-2.21 2.17-2.21c.681 0 1.135.29 1.396.541l.949-.916A3.357 3.357 0 0 0 9.5 8.5C7.564 8.5 6 10.065 6 12s1.564 3.5 3.5 3.5c2.02 0 3.359-1.419 3.359-3.419 0-.23-.024-.405-.055-.58H9.5zm0 0l8.5 1h-1.5V14h-1v-1.5H14v-1h1.5V10h1v1.5H18v1z"/></symbol><symbol viewBox="0 0 24 24" id="qn__instagram"><path d="M12 2c5.514 0 10 4.486 10 10s-4.486 10-10 10S2 17.514 2 12 6.486 2 12 2zm0-2C5.373 0 0 5.373 0 12s5.373 12 12 12 12-5.373 12-12S18.627 0 12 0zm4.615 6h-9.23C6.619 6 6 6.62 6 7.384v9.23C6 17.38 6.619 18 7.385 18h9.23c.766 0 1.385-.62 1.385-1.385v-9.23C18 6.62 17.381 6 16.615 6zM12 9.693a2.308 2.308 0 1 1 .002 4.616A2.308 2.308 0 0 1 12 9.693zm4.5 6.346a.461.461 0 0 1-.461.461H7.961a.462.462 0 0 1-.461-.461V11h.949a3.708 3.708 0 0 0-.14 1 3.691 3.691 0 1 0 7.382 0c0-.174-.015-.346-.039-.514A3.708 3.708 0 0 0 15.55 11h.95v5.039zm0-6.991a.462.462 0 0 1-.461.462h-1.088a.461.461 0 0 1-.461-.462V7.961a.46.46 0 0 1 .461-.461h1.088c.254 0 .461.207.461.461v1.087z"/></symbol><symbol viewBox="0 0 24 24" id="qn__linkedin"><path d="M12 2c5.514 0 10 4.486 10 10s-4.486 10-10 10S2 17.514 2 12 6.486 2 12 2zm0-2C5.373 0 0 5.373 0 12s5.373 12 12 12 12-5.373 12-12S18.627 0 12 0zm-2 8c0 .557-.447 1.008-1 1.008S8 8.558 8 8c0-.557.447-1.008 1-1.008S10 7.444 10 8zm0 2H8v6h2v-6zm3 0h-2v6h2v-2.861c0-1.722 2.002-1.881 2.002 0V16H17v-3.359c0-3.284-3.128-3.164-4-1.548V10z"/></symbol><symbol viewBox="0 0 256 256" id="qn__qn"><defs><linearGradient id="oa" gradientUnits="userSpaceOnUse" x1="135.941" x2="247.59"><stop/><stop offset="1"/></linearGradient></defs><path d="M164.986 209.332h-29.045V76.1h28.778v8.26c12.968-7.46 25.226-11.191 36.772-11.191 17.765 0 29.889 5.018 36.373 15.055 6.484 10.037 9.726 26.602 9.726 49.696v71.412h-28.778v-70.613c0-14.389-1.555-24.603-4.664-30.643-3.108-6.04-9.459-9.06-19.052-9.06-9.06 0-17.764 1.776-26.113 5.329l-3.997 1.599v103.388M8.41 162.107V93.893c0-17.053 4.197-28.86 12.59-36.73 9.79-6.56 20.981-10.495 36.367-10.495 15.387 0 26.577 3.935 36.369 10.494 8.392 7.871 12.589 19.677 12.589 36.731v68.214c0 15.742-4.197 26.236-11.19 34.107h20.981v13.118H51.772c-13.987-1.312-23.779-5.247-32.171-13.118-6.994-6.559-11.19-18.365-11.19-34.107m15.386 0c0 19.677 9.791 31.483 27.975 32.795h11.19c18.185-1.312 27.976-13.118 27.976-32.795V93.893c0-23.613-11.19-34.107-33.57-34.107-22.38 0-33.571 10.494-33.571 34.107v68.214" fill="url(#oa)" fill-rule="evenodd"/></symbol><symbol viewBox="0 0 512 190" id="qn__quebecnumerique"><g fill-rule="evenodd"><path d="M15.045 161.511H2.822v-56.069h12.111v3.476c5.457-3.14 10.616-4.71 15.475-4.71 7.476 0 12.578 2.112 15.307 6.336 2.728 4.224 4.093 11.195 4.093 20.914v30.053H37.697v-29.717c0-6.055-.654-10.354-1.963-12.896-1.308-2.541-3.98-3.812-8.017-3.812-3.813 0-7.476.747-10.99 2.243l-1.682.672v43.51m82.905-56.069h12.11v56.069H97.95v-3.477c-5.458 3.14-10.504 4.71-15.139 4.71-7.7 0-12.858-2.074-15.475-6.224-2.616-4.149-3.925-11.419-3.925-21.81v-29.268h12.223v29.38c0 6.728.561 11.251 1.682 13.569 1.122 2.317 3.738 3.476 7.85 3.476 4.037 0 7.737-.748 11.102-2.243l1.682-.673v-43.509m39.132 56.069h-12.223v-56.069h12.111v3.476c5.308-3.14 10.167-4.71 14.578-4.71 6.504 0 11.251 1.832 14.241 5.495 6.803-3.663 13.569-5.495 20.297-5.495s11.475 2.075 14.241 6.224 4.15 11.158 4.15 21.026v30.053h-12.111v-29.717c0-6.055-.617-10.354-1.851-12.896-1.233-2.541-3.794-3.812-7.681-3.812-3.364 0-6.99.747-10.877 2.243l-1.907.784c.598 1.496.897 6.28.897 14.354v29.044h-12.11v-28.82c0-6.653-.598-11.251-1.795-13.793-1.196-2.541-3.812-3.812-7.849-3.812-3.738 0-7.214.747-10.429 2.243l-1.682.672v43.51m121.613-10.093l3.14-.336.224 9.083c-8.522 1.719-16.073 2.579-22.652 2.579-8.298 0-14.26-2.28-17.886-6.84-3.625-4.561-5.438-11.849-5.438-21.867 0-19.886 8.111-29.829 24.334-29.829 15.699 0 23.548 8.56 23.548 25.68l-.785 8.747h-34.762c.075 4.635 1.084 8.036 3.028 10.204 1.943 2.168 5.569 3.252 10.877 3.252 5.308 0 10.765-.224 16.372-.673m-6.728-22.203c0-5.532-.879-9.401-2.636-11.606-1.756-2.205-4.728-3.308-8.914-3.308-4.187 0-7.233 1.159-9.14 3.476-1.906 2.318-2.897 6.13-2.971 11.438h23.661m23.752 32.296v-56.069h12.111v6.728c6.354-4.111 12.708-6.765 19.063-7.962v12.223c-6.429 1.271-11.924 2.916-16.484 4.934l-2.467 1.01v39.136h-12.223m40.474 0v-56.069h12.223v56.069h-12.223m46.383 1.233c-7.7 0-13.288-2.168-16.764-6.504-3.477-4.336-5.215-11.942-5.215-22.82 0-10.877 2.037-18.465 6.112-22.764 4.074-4.298 11.12-6.448 21.137-6.448 3.664 0 9.271.337 16.821 1.01l3.701.336v80.066h-12.111v-26.24c-5.009 2.243-9.569 3.364-13.681 3.364m5.27-47.995c-5.905 0-9.886 1.477-11.942 4.43-2.056 2.953-3.084 7.756-3.084 14.409 0 6.654.916 11.364 2.747 14.13 1.832 2.766 4.654 4.149 8.467 4.149 3.513 0 7.027-.561 10.541-1.682l1.682-.561v-34.426c-3.589-.299-6.392-.449-8.411-.449m69.231-9.307h12.111v56.069h-12.111v-3.477c-5.457 3.14-10.503 4.71-15.138 4.71-7.7 0-12.859-2.074-15.475-6.224-2.617-4.149-3.925-11.419-3.925-21.81v-29.268h12.223v29.38c0 6.728.561 11.251 1.682 13.569 1.121 2.317 3.738 3.476 7.85 3.476 4.037 0 7.737-.748 11.101-2.243l1.682-.673v-43.509m66.831 45.976l3.139-.336.225 9.083c-8.523 1.719-16.073 2.579-22.652 2.579-8.298 0-14.26-2.28-17.886-6.84-3.626-4.561-5.439-11.849-5.439-21.867 0-19.886 8.112-29.829 24.334-29.829 15.699 0 23.549 8.56 23.549 25.68l-.785 8.747h-34.762c.074 4.635 1.083 8.036 3.027 10.204 1.944 2.168 5.57 3.252 10.878 3.252 5.307 0 10.765-.224 16.372-.673m-6.729-22.203c0-5.532-.878-9.401-2.635-11.606-1.757-2.205-4.728-3.308-8.915-3.308-4.186 0-7.233 1.159-9.139 3.476-1.906 2.318-2.897 6.13-2.972 11.438h23.661M58.098 64.508v-46.58h6.569v46.58c0 4.73 1.244 8.966 3.732 11.362 2.489 2.396 6.022 3.594 10.6 3.594 4.58 0 8.113-1.198 10.601-3.594 2.488-2.396 3.733-6.633 3.733-11.362v-46.58h6.569v46.58c0 6.907-1.908 11.963-5.723 15.168-3.816 3.205-8.875 4.807-15.18 4.807-6.303 0-11.363-1.602-15.178-4.807-3.815-3.205-5.723-8.26-5.723-15.168M114.695 81.496V15.688h38.42v5.694h-31.851v25.67h20.778v5.32h-20.778V78.23h31.851v5.694h-35.434c-.796 0-1.493-.217-2.09-.653-.598-.436-.896-1.027-.896-1.774M267.164 64.508V35.57c0-6.783 1.941-11.793 5.823-15.029 3.882-3.236 8.908-4.854 15.079-4.854 6.304 0 11.297 1.51 14.98 4.528s6.015 8.105 6.015 12.461h-7.06a17.892 17.892 0 0 0-.398-2.707c-.199-.871-.598-1.851-1.195-2.94a9.929 9.929 0 0 0-2.339-2.847c-.962-.81-2.306-1.478-4.031-2.007-1.725-.529-3.716-.794-5.972-.794-9.555 0-14.333 4.73-14.333 14.189v28.937c0 9.52 4.911 14.282 14.731 14.282 2.787 0 5.11-.358 6.968-1.074 1.858-.716 3.218-1.758 4.08-3.127.863-1.37 1.444-2.536 1.742-3.5.299-.965.548-2.225.747-3.78h6.896c0 4.417-2.202 9.551-5.951 12.6-3.749 3.05-8.808 4.575-15.179 4.575-6.104 0-11.064-1.618-14.88-4.854-3.815-3.236-5.723-8.277-5.723-15.122M165.29 81.601V15.907h19.426c2.943 0 5.298 0 7.652.552 2.355.552 4.709 1.104 6.475 2.208s3.532 2.76 4.71 4.969c.588 2.208 1.177 4.968 1.177 7.729 0 3.864-.589 7.176-2.355 9.937-1.177 2.76-3.532 4.416-5.886 5.52 2.943 1.656 5.886 3.312 7.652 5.52 1.766 2.76 2.355 6.073 2.355 10.49v1.656c0 7.176-1.766 11.593-5.298 14.905-3.532 2.76-8.241 4.417-14.128 4.417h-18.837c-1.177 0-1.765 0-2.354-.552-.589-.553-.589-1.105-.589-1.657m6.475-3.312h14.128c9.419 0 14.128-4.416 14.128-13.801v-1.656c0-8.833-4.709-13.25-14.128-13.25h-14.128V78.29m0-34.227h12.951c4.709 0 8.241-.552 10.596-2.76 1.765-1.657 2.943-4.969 2.943-8.833 0-4.417-1.178-7.177-3.532-8.833-2.355-1.656-5.887-2.208-10.596-2.208h-12.362v22.634M2.822 64.488V35.78c0-7.177 1.766-12.145 5.298-15.458 4.12-2.76 8.83-4.416 15.305-4.416s11.184 1.656 15.305 4.416c3.532 3.313 5.298 8.281 5.298 15.458v28.707c0 6.624-1.766 11.04-4.71 14.353h8.83v5.52H21.07c-5.886-.551-10.007-2.208-13.539-5.52-2.943-2.76-4.709-7.729-4.709-14.353m6.475 0c0 8.28 4.12 13.25 11.773 13.801h4.71c7.652-.552 11.772-5.52 11.772-13.801V35.78c0-9.937-4.709-14.353-14.127-14.353-9.419 0-14.128 4.416-14.128 14.353v28.707M219.721 82.056V16.25h38.419v5.694h-31.85v25.67h20.778v5.32H226.29v25.856h31.85v5.694h-35.434c-.796 0-1.492-.217-2.09-.653-.597-.436-.895-1.027-.895-1.774"/></g><path d="M258.14 92.004h-32.23v7.778h32.23v-7.778M328.409 92.004h-12.572v7.778h12.572v-7.778M150.653 4.38h-32.23v5.871h32.23V4.38"/></symbol><symbol viewBox="0 0 24 24" id="qn__twitter"><path d="M12 2c5.514 0 10 4.486 10 10s-4.486 10-10 10S2 17.514 2 12 6.486 2 12 2zm0-2C5.373 0 0 5.373 0 12s5.373 12 12 12 12-5.373 12-12S18.627 0 12 0zm6.5 8.778a4.928 4.928 0 0 1-1.414.388 2.473 2.473 0 0 0 1.083-1.362 4.926 4.926 0 0 1-1.564.597 2.464 2.464 0 0 0-4.195 2.245 6.993 6.993 0 0 1-5.074-2.572 2.465 2.465 0 0 0 .762 3.287 2.457 2.457 0 0 1-1.114-.308c-.027 1.14.791 2.207 1.975 2.445a2.467 2.467 0 0 1-1.112.042 2.465 2.465 0 0 0 2.3 1.709A4.955 4.955 0 0 1 6.5 16.27a6.963 6.963 0 0 0 3.773 1.106c4.572 0 7.154-3.861 6.998-7.324.482-.346.899-.78 1.229-1.274z"/></symbol><symbol viewBox="0 0 24 24" id="qn__youtube"><path d="M16.23 7.102c-2.002-.136-6.462-.135-8.461 0C5.604 7.25 5.35 8.558 5.333 12c.017 3.436.27 4.75 2.437 4.898 1.999.135 6.459.136 8.461 0 2.165-.148 2.42-1.457 2.437-4.898-.018-3.436-.271-4.75-2.438-4.898zM10 14.222V9.778l4.778 2.218L10 14.222zM12 2c5.514 0 10 4.486 10 10s-4.486 10-10 10S2 17.514 2 12 6.486 2 12 2zm0-2C5.373 0 0 5.373 0 12s5.373 12 12 12 12-5.373 12-12S18.627 0 12 0z"/></symbol></svg>