<?xml version="1.0" encoding="utf-8"?>
<svg xmlns="http://www.w3.org/2000/svg" xmlns:xlink="http://www.w3.org/1999/xlink" viewBox="0 0 24 24">
  <path d="M12 2c5.514 0 10 4.486 10 10s-4.486 10-10 10S2 17.514 2 12 6.486 2 12 2zm0-2C5.373 0 0 5.373 0 12s5.373 12 12 12 12-5.373 12-12S18.627 0 12 0zm0 6a6 6 0 0 0-1.896 11.693c.3.056.396-.13.396-.29v-1.116c-1.67.363-2.017-.707-2.017-.707-.272-.693-.666-.878-.666-.878-.544-.373.04-.365.04-.365.604.042.92.62.92.62.536.916 1.404.65 1.747.498.054-.388.21-.652.38-.802-1.332-.152-2.732-.667-2.732-2.965 0-.655.234-1.19.618-1.61-.062-.153-.268-.764.058-1.59 0 0 .504-.16 1.65.615.48-.133.992-.2 1.502-.202.51.003 1.023.07 1.503.203 1.146-.776 1.648-.615 1.648-.615.328.826.122 1.437.06 1.588.386.42.618.955.618 1.61 0 2.305-1.404 2.812-2.74 2.96.216.186.412.55.412 1.11v1.647c0 .16.096.347.4.288A6 6 0 0 0 12 6z"/>
</svg>
