<svg xmlns="http://www.w3.org/2000/svg" viewBox="0 0 256 256"><defs><linearGradient id="0" gradientUnits="userSpaceOnUse" x1="135.941" x2="247.59"><stop/><stop offset="1"/></linearGradient></defs><g name="Layer 1"><g><path d="m164.986 209.332h-29.045v-133.2321h28.778v8.2604c12.968-7.461 25.226-11.1915 36.772-11.1915 17.765 0 29.889 5.0184 36.373 15.0553 6.484 10.0368 9.726 26.6019 9.726 49.6959v71.412h-28.778v-70.613c0-14.389-1.555-24.603-4.664-30.643-3.108-6.04-9.459-9.0601-19.052-9.0601-9.06 0-17.764 1.7761-26.113 5.3291l-3.997 1.599v103.388" fill="url(#0)" fill-rule="evenodd"/></g><g><path d="m8.41036 162.107v-68.214c0-17.0535 4.19634-28.8597 12.58894-36.7306 9.7915-6.559 20.9817-10.4944 36.3682-10.4944 15.3866 0 26.5768 3.9354 36.3682 10.4944 8.3923 7.8709 12.5893 19.6771 12.5893 36.7306v68.214c0 15.742-4.197 26.236-11.1905 34.107h20.9815v13.118h-64.3436c-13.9877-1.312-23.7792-5.247-32.1718-13.118-6.9939-6.559-11.19024-18.365-11.19024-34.107m15.38654 0c0 19.677 9.7914 31.483 27.9755 32.795h11.1902c18.1841-1.312 27.9755-13.118 27.9755-32.795v-68.214c0-23.6125-11.1902-34.1069-33.5706-34.1069-22.3804 0-33.5706 10.4944-33.5706 34.1069v68.214" fill="url(#0)" fill-rule="evenodd"/></g></g></svg>