<?xml version="1.0" encoding="utf-8"?>
<svg xmlns="http://www.w3.org/2000/svg" xmlns:xlink="http://www.w3.org/1999/xlink" viewBox="0 0 256 256">
  <defs>
    <linearGradient id="ga" gradientUnits="userSpaceOnUse" x1="135.941" x2="247.59"><stop/><stop offset="1"/></linearGradient>
  </defs>
  <path d="M164.986 209.332H135.94V76.1h28.78v8.26c12.967-7.46 25.225-11.19 36.77-11.19 17.766 0 29.89 5.017 36.374 15.054 6.484 10.037 9.726 26.602 9.726 49.696v71.412h-28.778V138.72c0-14.39-1.555-24.604-4.664-30.644-3.108-6.04-9.46-9.06-19.052-9.06-9.06 0-17.764 1.776-26.113 5.33l-3.997 1.598v103.388M8.41 162.107V93.893c0-17.053 4.197-28.86 12.59-36.73 9.79-6.56 20.98-10.495 36.367-10.495 15.387 0 26.577 3.935 36.37 10.494 8.39 7.87 12.588 19.677 12.588 36.73v68.215c0 15.742-4.197 26.236-11.19 34.107h20.98v13.118H51.773c-13.987-1.312-23.78-5.247-32.17-13.118-6.995-6.56-11.192-18.365-11.192-34.107m15.387 0c0 19.677 9.79 31.483 27.975 32.795h11.19c18.185-1.312 27.976-13.118 27.976-32.795V93.893c0-23.613-11.19-34.107-33.57-34.107-22.38 0-33.57 10.494-33.57 34.107v68.214" fill="url(#ga)" fill-rule="evenodd"/>
</svg>
