<svg xmlns="http://www.w3.org/2000/svg" viewBox="0 0 512 190"><g name="Layer 1"><g fill-rule="evenodd"><path d="m15.0451 161.511h-12.22293v-56.069h12.11083v3.476c5.4573-3.14 10.6157-4.71 15.4749-4.71 7.4759 0 12.5781 2.112 15.3068 6.336 2.7287 4.224 4.093 11.195 4.093 20.914v30.053h-12.1108v-29.717c0-6.055-.6542-10.354-1.9625-12.896-1.3082-2.541-3.9808-3.812-8.0178-3.812-3.8126 0-7.4758.747-10.9894 2.243l-1.6821.672v43.51m82.9045-56.069h12.1104v56.069h-12.1104v-3.477c-5.4573 3.14-10.5035 4.71-15.1385 4.71-7.7001 0-12.8584-2.074-15.4749-6.224-2.6166-4.149-3.9248-11.419-3.9248-21.81v-29.268h12.2229v29.38c0 6.728.5607 11.251 1.6821 13.569 1.1213 2.317 3.7379 3.476 7.8496 3.476 4.0369 0 7.7374-.748 11.1016-2.243l1.682-.673v-43.509m39.1324 56.069h-12.223v-56.069h12.111v3.476c5.308-3.14 10.167-4.71 14.578-4.71 6.504 0 11.251 1.832 14.241 5.495 6.803-3.663 13.569-5.495 20.297-5.495 6.728 0 11.475 2.075 14.241 6.224 2.766 4.149 4.15 11.158 4.15 21.026v30.053h-12.111v-29.717c0-6.055-.617-10.354-1.851-12.896-1.233-2.541-3.794-3.812-7.681-3.812-3.364 0-6.99.747-10.877 2.243l-1.907.784c.598 1.496.897 6.28.897 14.354v29.044h-12.11v-28.82c0-6.653-.598-11.251-1.795-13.793-1.196-2.541-3.812-3.812-7.849-3.812-3.738 0-7.214.747-10.429 2.243l-1.682.672v43.51m121.613-10.093l3.14-.336.224 9.083c-8.522 1.719-16.073 2.579-22.652 2.579-8.298 0-14.26-2.28-17.886-6.84-3.625-4.561-5.438-11.849-5.438-21.867 0-19.886 8.111-29.829 24.334-29.829 15.699 0 23.548 8.56 23.548 25.68l-.785 8.747h-34.762c.075 4.635 1.084 8.036 3.028 10.204 1.943 2.168 5.569 3.252 10.877 3.252 5.308 0 10.765-.224 16.372-.673m-6.728-22.203c0-5.532-.879-9.401-2.636-11.606-1.756-2.205-4.728-3.308-8.914-3.308-4.187 0-7.233 1.159-9.14 3.476-1.906 2.318-2.897 6.13-2.971 11.438h23.661m23.752 32.296v-56.069h12.111v6.728c6.354-4.111 12.708-6.765 19.063-7.962v12.223c-6.429 1.271-11.924 2.916-16.484 4.934l-2.467 1.01v39.136h-12.223m40.474 0v-56.069h12.223v56.069h-12.223m46.383 1.233c-7.7 0-13.288-2.168-16.764-6.504-3.477-4.336-5.215-11.942-5.215-22.82 0-10.877 2.037-18.465 6.112-22.764 4.074-4.298 11.12-6.448 21.137-6.448 3.664 0 9.271.337 16.821 1.01l3.701.336v80.066h-12.111v-26.24c-5.009 2.243-9.569 3.364-13.681 3.364m5.27-47.995c-5.905 0-9.886 1.477-11.942 4.43-2.056 2.953-3.084 7.756-3.084 14.409 0 6.654.916 11.364 2.747 14.13 1.832 2.766 4.654 4.149 8.467 4.149 3.513 0 7.027-.561 10.541-1.682l1.682-.561v-34.426c-3.589-.299-6.392-.449-8.411-.449m69.231-9.307h12.111v56.069h-12.111v-3.477c-5.457 3.14-10.503 4.71-15.138 4.71-7.7 0-12.859-2.074-15.475-6.224-2.617-4.149-3.925-11.419-3.925-21.81v-29.268h12.223v29.38c0 6.728.561 11.251 1.682 13.569 1.121 2.317 3.738 3.476 7.85 3.476 4.037 0 7.737-.748 11.101-2.243l1.682-.673v-43.509m66.831 45.976l3.139-.336.225 9.083c-8.523 1.719-16.073 2.579-22.652 2.579-8.298 0-14.26-2.28-17.886-6.84-3.626-4.561-5.439-11.849-5.439-21.867 0-19.886 8.112-29.829 24.334-29.829 15.699 0 23.549 8.56 23.549 25.68l-.785 8.747h-34.762c.074 4.635 1.083 8.036 3.027 10.204 1.944 2.168 5.57 3.252 10.878 3.252 5.307 0 10.765-.224 16.372-.673m-6.729-22.203c0-5.532-.878-9.401-2.635-11.606-1.757-2.205-4.728-3.308-8.915-3.308-4.186 0-7.233 1.159-9.139 3.476-1.906 2.318-2.897 6.13-2.972 11.438h23.661"/><path d="m58.0978 64.5077v-46.579h6.5692v46.579c0 4.7295 1.2441 8.9664 3.7325 11.3622 2.4883 2.3959 6.0217 3.5938 10.6002 3.5938 4.5786 0 8.112-1.1979 10.6003-3.5938 2.4883-2.3958 3.7325-6.6327 3.7325-11.3622v-46.579h6.5692v46.579c0 6.9075-1.9077 11.9637-5.7231 15.1685-3.8155 3.2049-8.8751 4.8073-15.1789 4.8073-6.3037 0-11.3633-1.6024-15.1788-4.8073-3.8154-3.2048-5.7231-8.261-5.7231-15.1685"/><path d="m114.695 81.4964v-65.8079h38.42v5.694h-31.851v25.6698h20.778v5.3206h-20.778v25.8565h31.851v5.694h-35.434c-.796 0-1.493-.2178-2.09-.6534-.598-.4356-.896-1.0268-.896-1.7736"/><path d="m267.164 64.5077v-28.9368c0-6.7831 1.941-11.7926 5.823-15.0285 3.882-3.236 8.908-4.8539 15.079-4.8539 6.304 0 11.297 1.509 14.98 4.5272 3.683 3.0181 6.015 8.1054 6.015 12.4615h-7.06c-.067-.9335-.199-1.8358-.398-2.707-.199-.8712-.598-1.8513-1.195-2.9404-.597-1.089-1.377-2.038-2.339-2.847-.962-.809-2.306-1.4779-4.031-2.0069-1.725-.5289-3.716-.7934-5.972-.7934-9.555 0-14.333 4.7294-14.333 14.1884v28.9368c0 9.5212 4.911 14.2818 14.731 14.2818 2.787 0 5.11-.3579 6.968-1.0735 1.858-.7157 3.218-1.758 4.08-3.1271.863-1.369 1.444-2.5358 1.742-3.5004.299-.9645.548-2.2247.747-3.7804h6.896c0 4.4183-2.202 9.5522-5.951 12.6015-3.749 3.0492-8.808 4.5739-15.179 4.5739-6.104 0-11.064-1.618-14.88-4.854-3.815-3.2359-5.723-8.2765-5.723-15.1218"/><path d="m165.29 81.6014v-65.6943h19.426c2.943 0 5.298 0 7.652.5521 2.355.552 4.709 1.1041 6.475 2.2082 1.766 1.1041 3.532 2.7602 4.71 4.9684.588 2.2083 1.177 4.9685 1.177 7.7288 0 3.8644-.589 7.1767-2.355 9.937-1.177 2.7602-3.532 4.4164-5.886 5.5205 2.943 1.6561 5.886 3.3123 7.652 5.5205 1.766 2.7603 2.355 6.0726 2.355 10.489v1.6562c0 7.1767-1.766 11.5931-5.298 14.9054-3.532 2.7603-8.241 4.4164-14.128 4.4164h-18.837c-1.177 0-1.765 0-2.354-.552-.589-.5521-.589-1.1041-.589-1.6562m6.475-3.3123h14.128c9.419 0 14.128-4.4164 14.128-13.8013v-1.6562c0-8.8328-4.709-13.2493-14.128-13.2493h-14.128v28.7068m0-34.2273h12.951c4.709 0 8.241-.552 10.596-2.7602 1.765-1.6562 2.943-4.9685 2.943-8.8329 0-4.4164-1.178-7.1767-3.532-8.8329-2.355-1.6561-5.887-2.2082-10.596-2.2082h-12.362v22.6342"/><path d="m2.82197 64.4878v-28.7068c0-7.1767 1.76595-12.1452 5.29787-15.4575 4.12056-2.7602 8.82976-4.4164 15.30496-4.4164 6.4752 0 11.1844 1.6562 15.305 4.4164 3.5319 3.3123 5.2979 8.2808 5.2979 15.4575v28.7068c0 6.6246-1.766 11.0411-4.7092 14.3534h8.8297v5.5205h-27.078c-5.8865-.5521-10.0071-2.2082-13.53901-5.5205-2.94327-2.7603-4.70922-7.7288-4.70922-14.3534m6.47518 0c0 8.2808 4.12055 13.2493 11.77305 13.8013h4.7092c7.6525-.552 11.7731-5.5205 11.7731-13.8013v-28.7068c0-9.9369-4.7092-14.3534-14.1277-14.3534-9.4184 0-14.12765 4.4165-14.12765 14.3534v28.7068"/><path d="m219.721 82.0565v-65.8079h38.419v5.694h-31.85v25.6698h20.778v5.3206h-20.778v25.8565h31.85v5.694h-35.434c-.796 0-1.492-.2178-2.09-.6534-.597-.4357-.895-1.0268-.895-1.7736"/></g><path d="m258.14 92.0036h-32.23v7.7785h32.23v-7.7785"/><path d="m328.409 92.0036h-12.572v7.7784h12.572v-7.7784"/><path d="m150.653 4.37987h-32.23v5.87143h32.23v-5.87143"/></g></svg>