<?xml version="1.0" encoding="utf-8"?>
<svg xmlns="http://www.w3.org/2000/svg" xmlns:xlink="http://www.w3.org/1999/xlink" viewBox="0 0 512 190">
  <g fill-rule="evenodd">
    <path d="M15.045 161.51H2.822v-56.068h12.11v3.476c5.458-3.14 10.617-4.71 15.476-4.71 7.476 0 12.578 2.112 15.307 6.336 2.728 4.224 4.093 11.195 4.093 20.914v30.053h-12.11v-29.716c0-6.055-.655-10.354-1.964-12.896-1.308-2.54-3.98-3.812-8.017-3.812-3.813 0-7.476.747-10.99 2.243l-1.682.67v43.51m82.905-56.068h12.11v56.07H97.95v-3.478c-5.458 3.14-10.504 4.71-15.14 4.71-7.7 0-12.857-2.074-15.474-6.224-2.616-4.15-3.925-11.42-3.925-21.81v-29.268h12.224v29.38c0 6.728.56 11.25 1.682 13.57 1.122 2.316 3.738 3.475 7.85 3.475 4.037 0 7.737-.748 11.102-2.243l1.682-.673v-43.508m39.132 56.07H124.86v-56.07h12.11v3.476c5.308-3.14 10.167-4.71 14.578-4.71 6.504 0 11.25 1.832 14.24 5.495 6.804-3.663 13.57-5.495 20.298-5.495 6.728 0 11.475 2.075 14.24 6.224 2.767 4.15 4.15 11.158 4.15 21.026v30.053h-12.11v-29.716c0-6.055-.617-10.354-1.85-12.896-1.234-2.54-3.795-3.812-7.682-3.812-3.364 0-6.99.747-10.877 2.243l-1.907.783c.598 1.496.897 6.28.897 14.354v29.044h-12.11v-28.82c0-6.652-.598-11.25-1.795-13.792-1.196-2.54-3.812-3.812-7.85-3.812-3.737 0-7.213.747-10.428 2.243l-1.682.67v43.51m121.613-10.092l3.14-.336.224 9.083c-8.523 1.72-16.074 2.58-22.653 2.58-8.298 0-14.26-2.28-17.886-6.84-3.624-4.562-5.437-11.85-5.437-21.868 0-19.886 8.11-29.83 24.334-29.83 15.7 0 23.548 8.56 23.548 25.68l-.785 8.748h-34.762c.075 4.635 1.084 8.036 3.028 10.204 1.943 2.167 5.57 3.25 10.877 3.25 5.308 0 10.765-.223 16.372-.672m-6.728-22.203c0-5.532-.88-9.4-2.636-11.606-1.755-2.206-4.727-3.31-8.913-3.31-4.187 0-7.233 1.16-9.14 3.477-1.906 2.318-2.897 6.13-2.97 11.438h23.66m23.752 32.296v-56.068h12.11v6.728c6.354-4.11 12.708-6.765 19.063-7.962v12.223c-6.43 1.272-11.924 2.917-16.484 4.935l-2.468 1.01v39.136H275.72m40.473 0v-56.068h12.223v56.07h-12.223m46.383 1.232c-7.7 0-13.288-2.168-16.764-6.504-3.477-4.336-5.215-11.942-5.215-22.82 0-10.877 2.037-18.465 6.112-22.764 4.073-4.298 11.12-6.448 21.136-6.448 3.664 0 9.27.337 16.82 1.01l3.702.336v80.066h-12.11v-26.24c-5.01 2.243-9.57 3.364-13.682 3.364m5.27-47.995c-5.905 0-9.886 1.476-11.942 4.43-2.056 2.952-3.084 7.755-3.084 14.408 0 6.654.916 11.364 2.747 14.13 1.832 2.766 4.654 4.15 8.467 4.15 3.513 0 7.027-.562 10.54-1.683l1.683-.56v-34.427c-3.59-.3-6.392-.45-8.41-.45m69.23-9.306h12.11v56.07h-12.11v-3.478c-5.457 3.14-10.503 4.71-15.138 4.71-7.7 0-12.86-2.074-15.476-6.224-2.617-4.15-3.925-11.42-3.925-21.81v-29.268h12.222v29.38c0 6.728.56 11.25 1.682 13.57 1.12 2.316 3.738 3.475 7.85 3.475 4.037 0 7.737-.748 11.1-2.243l1.683-.673v-43.508m66.83 45.976l3.14-.336.225 9.083c-8.523 1.72-16.073 2.58-22.652 2.58-8.298 0-14.26-2.28-17.886-6.84-3.626-4.562-5.44-11.85-5.44-21.868 0-19.886 8.113-29.83 24.335-29.83 15.698 0 23.548 8.56 23.548 25.68l-.785 8.748H473.63c.075 4.635 1.084 8.036 3.028 10.204 1.944 2.167 5.57 3.25 10.878 3.25 5.307 0 10.765-.223 16.372-.672m-6.73-22.203c0-5.532-.877-9.4-2.634-11.606-1.757-2.206-4.728-3.31-8.915-3.31-4.187 0-7.234 1.16-9.14 3.477-1.906 2.318-2.897 6.13-2.972 11.438h23.66M58.098 64.508v-46.58h6.57v46.58c0 4.73 1.243 8.966 3.73 11.362 2.49 2.396 6.023 3.594 10.602 3.594 4.578 0 8.112-1.198 10.6-3.594 2.488-2.396 3.733-6.633 3.733-11.362v-46.58h6.57v46.58c0 6.907-1.91 11.963-5.724 15.168-3.817 3.205-8.877 4.807-15.18 4.807-6.304 0-11.364-1.602-15.18-4.807-3.814-3.205-5.722-8.26-5.722-15.168M114.695 81.496V15.688h38.42v5.694h-31.85v25.67h20.777v5.32h-20.778V78.23h31.85v5.693h-35.433c-.795 0-1.492-.217-2.09-.653-.597-.436-.895-1.027-.895-1.774M267.164 64.508V35.57c0-6.782 1.94-11.792 5.823-15.028 3.882-3.236 8.908-4.854 15.08-4.854 6.303 0 11.296 1.51 14.98 4.528 3.682 3.018 6.014 8.105 6.014 12.46H302c-.066-.932-.198-1.835-.397-2.706-.2-.87-.598-1.85-1.195-2.94a9.93 9.93 0 0 0-2.34-2.847c-.96-.81-2.305-1.478-4.03-2.007-1.725-.53-3.716-.794-5.972-.794-9.555 0-14.333 4.73-14.333 14.19v28.936c0 9.52 4.91 14.282 14.73 14.282 2.788 0 5.11-.358 6.97-1.074 1.857-.716 3.217-1.758 4.08-3.127.862-1.37 1.443-2.537 1.74-3.5.3-.966.55-2.226.748-3.782h6.897c0 4.418-2.202 9.552-5.95 12.602-3.75 3.05-8.81 4.574-15.18 4.574-6.104 0-11.064-1.618-14.88-4.854-3.815-3.236-5.723-8.277-5.723-15.122M165.29 81.6V15.908h19.426c2.943 0 5.298 0 7.652.552 2.355.55 4.71 1.103 6.475 2.207 1.766 1.104 3.532 2.76 4.71 4.97.588 2.207 1.177 4.967 1.177 7.728 0 3.864-.59 7.176-2.355 9.937-1.177 2.76-3.532 4.416-5.886 5.52 2.942 1.656 5.885 3.312 7.65 5.52 1.767 2.76 2.356 6.073 2.356 10.49v1.656c0 7.176-1.766 11.593-5.298 14.905-3.532 2.76-8.24 4.417-14.128 4.417h-18.837c-1.177 0-1.765 0-2.354-.552-.59-.553-.59-1.105-.59-1.657m6.475-3.31h14.128c9.42 0 14.128-4.417 14.128-13.802v-1.656c0-8.833-4.708-13.25-14.127-13.25h-14.128V78.29m0-34.228h12.95c4.71 0 8.242-.552 10.597-2.76 1.765-1.657 2.943-4.97 2.943-8.833 0-4.418-1.178-7.178-3.532-8.834-2.355-1.656-5.887-2.208-10.596-2.208h-12.362v22.634M2.822 64.488V35.78c0-7.176 1.766-12.144 5.298-15.457 4.12-2.76 8.83-4.416 15.305-4.416s11.184 1.656 15.305 4.416c3.532 3.313 5.298 8.28 5.298 15.458V64.49c0 6.624-1.766 11.04-4.71 14.353h8.83v5.522H21.07c-5.886-.552-10.007-2.21-13.54-5.52-2.942-2.76-4.708-7.73-4.708-14.354m6.475 0c0 8.28 4.12 13.25 11.773 13.8h4.71c7.652-.55 11.772-5.52 11.772-13.8V35.78c0-9.936-4.71-14.352-14.127-14.352-9.42 0-14.128 4.416-14.128 14.353V64.49M219.72 82.056V16.25h38.42v5.693h-31.85v25.67h20.778v5.32H226.29V78.79h31.85v5.693h-35.434c-.796 0-1.492-.217-2.09-.653-.597-.436-.895-1.027-.895-1.774"/>
  </g>
  <path d="M258.14 92.004h-32.23v7.778h32.23v-7.778M328.41 92.004h-12.573v7.778h12.572v-7.778M150.653 4.38h-32.23v5.87h32.23V4.38"/>
</svg>
