<?xml version="1.0" encoding="utf-8"?>
<svg xmlns="http://www.w3.org/2000/svg" xmlns:xlink="http://www.w3.org/1999/xlink" viewBox="0 0 24 24">
  <path d="M12 2c5.514 0 10 4.486 10 10s-4.486 10-10 10S2 17.514 2 12 6.486 2 12 2zm0-2C5.373 0 0 5.373 0 12s5.373 12 12 12 12-5.373 12-12S18.627 0 12 0zm6.5 8.778c-.44.196-.916.328-1.414.388.51-.305.898-.787 1.083-1.362a4.926 4.926 0 0 1-1.565.597 2.464 2.464 0 0 0-4.195 2.245 6.993 6.993 0 0 1-5.075-2.57 2.465 2.465 0 0 0 .762 3.286 2.457 2.457 0 0 1-1.114-.307c-.027 1.14.79 2.207 1.975 2.445a2.467 2.467 0 0 1-1.113.042 2.465 2.465 0 0 0 2.3 1.71A4.955 4.955 0 0 1 6.5 16.27a6.963 6.963 0 0 0 3.773 1.106c4.572 0 7.154-3.86 6.998-7.324.483-.346.9-.78 1.23-1.274z"/>
</svg>
